<?xml version="1.0" encoding="utf-8" standalone="no"?>
<!DOCTYPE svg PUBLIC "-//W3C//DTD SVG 1.1//EN"
  "http://www.w3.org/Graphics/SVG/1.1/DTD/svg11.dtd">
<svg xmlns:xlink="http://www.w3.org/1999/xlink" width="327.507335pt" height="177.594405pt" viewBox="0 0 327.507335 177.594405" xmlns="http://www.w3.org/2000/svg" version="1.1">
 <metadata>
  <rdf:RDF xmlns:dc="http://purl.org/dc/elements/1.1/" xmlns:cc="http://creativecommons.org/ns#" xmlns:rdf="http://www.w3.org/1999/02/22-rdf-syntax-ns#">
   <cc:Work>
    <dc:type rdf:resource="http://purl.org/dc/dcmitype/StillImage"/>
    <dc:date>2023-04-13T15:41:20.253423</dc:date>
    <dc:format>image/svg+xml</dc:format>
    <dc:creator>
     <cc:Agent>
      <dc:title>Matplotlib v3.7.0, https://matplotlib.org/</dc:title>
     </cc:Agent>
    </dc:creator>
   </cc:Work>
  </rdf:RDF>
 </metadata>
 <defs>
  <style type="text/css">*{stroke-linejoin: round; stroke-linecap: butt}</style>
 </defs>
 <g id="figure_1">
  <g id="patch_1">
   <path d="M 0 177.594405 
L 327.507335 177.594405 
L 327.507335 0 
L 0 0 
L 0 177.594405 
z
" style="fill: none"/>
  </g>
  <g id="axes_1">
   <g id="patch_2">
    <path d="M 43.058437 146.694405 
L 229.790721 146.694405 
L 229.790721 7.2 
L 43.058437 7.2 
L 43.058437 146.694405 
z
" style="fill: none"/>
   </g>
   <g id="matplotlib.axis_1">
    <g id="xtick_1">
     <g id="line2d_1">
      <defs>
       <path id="m483caf2e99" d="M 0 0 
L 0 -3.5 
" style="stroke: #000000; stroke-width: 0.8"/>
      </defs>
      <g>
       <use xlink:href="#m483caf2e99" x="51.546269" y="146.694405" style="stroke: #000000; stroke-width: 0.8"/>
      </g>
     </g>
     <g id="text_1">
      <!-- 0 -->
      <g transform="translate(49.296269 156.341124) scale(0.09 -0.09)">
       <defs>
        <path id="STIXGeneral-Regular-30" d="M 3046 2112 
Q 3046 1683 2963 1302 
Q 2880 922 2717 602 
Q 2554 282 2266 96 
Q 1978 -90 1600 -90 
Q 1210 -90 915 108 
Q 621 307 461 640 
Q 301 973 227 1350 
Q 154 1728 154 2150 
Q 154 2746 301 3222 
Q 448 3699 790 4012 
Q 1133 4326 1626 4326 
Q 2253 4326 2649 3712 
Q 3046 3098 3046 2112 
z
M 2432 2080 
Q 2432 3091 2217 3625 
Q 2003 4160 1587 4160 
Q 1190 4160 979 3622 
Q 768 3085 768 2106 
Q 768 1120 979 598 
Q 1190 77 1600 77 
Q 2003 77 2217 598 
Q 2432 1120 2432 2080 
z
" transform="scale(0.015625)"/>
       </defs>
       <use xlink:href="#STIXGeneral-Regular-30"/>
      </g>
     </g>
    </g>
    <g id="xtick_2">
     <g id="line2d_2">
      <g>
       <use xlink:href="#m483caf2e99" x="90.748704" y="146.694405" style="stroke: #000000; stroke-width: 0.8"/>
      </g>
     </g>
     <g id="text_2">
      <!-- 10 -->
      <g transform="translate(86.248704 156.341124) scale(0.09 -0.09)">
       <defs>
        <path id="STIXGeneral-Regular-31" d="M 2522 0 
L 755 0 
L 755 96 
Q 1107 115 1235 227 
Q 1363 339 1363 608 
L 1363 3482 
Q 1363 3795 1171 3795 
Q 1082 3795 883 3718 
L 710 3654 
L 710 3744 
L 1856 4326 
L 1914 4307 
L 1914 486 
Q 1914 275 2042 185 
Q 2170 96 2522 96 
L 2522 0 
z
" transform="scale(0.015625)"/>
       </defs>
       <use xlink:href="#STIXGeneral-Regular-31"/>
       <use xlink:href="#STIXGeneral-Regular-30" x="49.999985"/>
      </g>
     </g>
    </g>
    <g id="xtick_3">
     <g id="line2d_3">
      <g>
       <use xlink:href="#m483caf2e99" x="129.951139" y="146.694405" style="stroke: #000000; stroke-width: 0.8"/>
      </g>
     </g>
     <g id="text_3">
      <!-- 20 -->
      <g transform="translate(125.451139 156.341124) scale(0.09 -0.09)">
       <defs>
        <path id="STIXGeneral-Regular-32" d="M 3034 877 
L 2688 0 
L 186 0 
L 186 77 
L 1325 1286 
Q 1773 1754 1965 2144 
Q 2157 2534 2157 2950 
Q 2157 3379 1920 3616 
Q 1683 3853 1267 3853 
Q 922 3853 720 3673 
Q 518 3494 326 3021 
L 192 3053 
Q 301 3648 630 3987 
Q 960 4326 1523 4326 
Q 2054 4326 2380 4006 
Q 2707 3686 2707 3200 
Q 2707 2477 1888 1613 
L 832 486 
L 2330 486 
Q 2541 486 2665 569 
Q 2790 653 2944 915 
L 3034 877 
z
" transform="scale(0.015625)"/>
       </defs>
       <use xlink:href="#STIXGeneral-Regular-32"/>
       <use xlink:href="#STIXGeneral-Regular-30" x="49.999985"/>
      </g>
     </g>
    </g>
    <g id="xtick_4">
     <g id="line2d_4">
      <g>
       <use xlink:href="#m483caf2e99" x="169.153574" y="146.694405" style="stroke: #000000; stroke-width: 0.8"/>
      </g>
     </g>
     <g id="text_4">
      <!-- 30 -->
      <g transform="translate(164.653574 156.341124) scale(0.09 -0.09)">
       <defs>
        <path id="STIXGeneral-Regular-33" d="M 390 3264 
L 288 3290 
Q 435 3770 748 4048 
Q 1062 4326 1542 4326 
Q 1990 4326 2265 4083 
Q 2541 3840 2541 3450 
Q 2541 2925 1946 2566 
Q 2298 2413 2477 2227 
Q 2758 1914 2758 1402 
Q 2758 890 2464 506 
Q 2246 211 1840 60 
Q 1434 -90 979 -90 
Q 262 -90 262 275 
Q 262 378 339 442 
Q 416 506 525 506 
Q 685 506 915 339 
Q 1197 141 1466 141 
Q 1818 141 2058 425 
Q 2298 710 2298 1120 
Q 2298 1856 1632 2048 
Q 1434 2112 979 2112 
L 979 2202 
Q 1338 2323 1517 2432 
Q 2035 2726 2035 3290 
Q 2035 3610 1852 3776 
Q 1670 3942 1344 3942 
Q 768 3942 390 3264 
z
" transform="scale(0.015625)"/>
       </defs>
       <use xlink:href="#STIXGeneral-Regular-33"/>
       <use xlink:href="#STIXGeneral-Regular-30" x="49.999985"/>
      </g>
     </g>
    </g>
    <g id="xtick_5">
     <g id="line2d_5">
      <g>
       <use xlink:href="#m483caf2e99" x="208.356009" y="146.694405" style="stroke: #000000; stroke-width: 0.8"/>
      </g>
     </g>
     <g id="text_5">
      <!-- 40 -->
      <g transform="translate(203.856009 156.341124) scale(0.09 -0.09)">
       <defs>
        <path id="STIXGeneral-Regular-34" d="M 3027 1069 
L 2368 1069 
L 2368 0 
L 1869 0 
L 1869 1069 
L 77 1069 
L 77 1478 
L 2086 4326 
L 2368 4326 
L 2368 1478 
L 3027 1478 
L 3027 1069 
z
M 1869 1478 
L 1869 3674 
L 333 1478 
L 1869 1478 
z
" transform="scale(0.015625)"/>
       </defs>
       <use xlink:href="#STIXGeneral-Regular-34"/>
       <use xlink:href="#STIXGeneral-Regular-30" x="49.999985"/>
      </g>
     </g>
    </g>
    <g id="text_6">
     <!-- distance -->
     <g transform="translate(121.677235 168.441124) scale(0.09 -0.09)">
      <defs>
       <path id="STIXGeneral-Regular-64" d="M 3142 269 
L 2202 -64 
L 2176 -45 
L 2176 365 
Q 1869 -64 1357 -64 
Q 826 -64 499 317 
Q 173 698 173 1312 
Q 173 1990 563 2467 
Q 954 2944 1504 2944 
Q 1850 2944 2176 2669 
L 2176 3667 
Q 2176 3866 2118 3930 
Q 2061 3994 1882 3994 
Q 1792 3994 1741 3987 
L 1741 4090 
Q 2323 4243 2682 4371 
L 2714 4358 
L 2714 730 
Q 2714 506 2768 435 
Q 2822 365 2995 365 
Q 3034 365 3142 371 
L 3142 269 
z
M 2176 653 
L 2176 2125 
Q 2176 2381 1981 2573 
Q 1786 2765 1523 2765 
Q 1158 2765 940 2438 
Q 723 2112 723 1568 
Q 723 979 963 624 
Q 1203 269 1606 269 
Q 1907 269 2080 474 
Q 2176 582 2176 653 
z
" transform="scale(0.015625)"/>
       <path id="STIXGeneral-Regular-69" d="M 1152 4045 
Q 1152 3904 1056 3811 
Q 960 3718 819 3718 
Q 685 3718 592 3811 
Q 499 3904 499 4045 
Q 499 4179 595 4275 
Q 691 4371 826 4371 
Q 966 4371 1059 4275 
Q 1152 4179 1152 4045 
z
M 1619 0 
L 102 0 
L 102 96 
Q 435 115 521 211 
Q 608 307 608 666 
L 608 2118 
Q 608 2342 563 2432 
Q 518 2522 397 2522 
Q 243 2522 128 2490 
L 128 2592 
L 1120 2944 
L 1146 2918 
L 1146 672 
Q 1146 314 1226 218 
Q 1306 122 1619 96 
L 1619 0 
z
" transform="scale(0.015625)"/>
       <path id="STIXGeneral-Regular-73" d="M 998 1926 
L 1664 1523 
Q 1984 1331 2105 1164 
Q 2227 998 2227 736 
Q 2227 416 1961 176 
Q 1696 -64 1331 -64 
Q 1030 -64 864 -6 
Q 691 51 570 51 
Q 461 51 416 -26 
L 333 -26 
L 333 979 
L 435 979 
Q 538 512 730 294 
Q 922 77 1248 77 
Q 1485 77 1632 211 
Q 1779 346 1779 550 
Q 1779 845 1440 1030 
L 1094 1222 
Q 326 1651 326 2150 
Q 326 2522 566 2730 
Q 806 2938 1210 2938 
Q 1491 2938 1638 2867 
Q 1754 2816 1818 2816 
Q 1862 2816 1920 2880 
L 1990 2880 
L 2022 2010 
L 1926 2010 
Q 1818 2445 1654 2621 
Q 1491 2797 1203 2797 
Q 986 2797 854 2688 
Q 723 2579 723 2362 
Q 723 2253 796 2128 
Q 870 2003 998 1926 
z
" transform="scale(0.015625)"/>
       <path id="STIXGeneral-Regular-74" d="M 1702 493 
L 1786 422 
Q 1478 -64 1011 -64 
Q 448 -64 448 749 
L 448 2675 
L 109 2675 
Q 83 2694 83 2720 
Q 83 2771 192 2842 
Q 435 2982 813 3526 
Q 826 3546 874 3606 
Q 922 3667 941 3706 
Q 986 3706 986 3622 
L 986 2880 
L 1632 2880 
L 1632 2675 
L 986 2675 
L 986 845 
Q 986 538 1062 403 
Q 1139 269 1318 269 
Q 1510 269 1702 493 
z
" transform="scale(0.015625)"/>
       <path id="STIXGeneral-Regular-61" d="M 2829 422 
L 2829 243 
Q 2586 -64 2253 -64 
Q 1888 -64 1843 403 
L 1837 403 
Q 1427 -64 909 -64 
Q 608 -64 422 112 
Q 237 288 237 602 
Q 237 1050 685 1350 
Q 992 1555 1837 1869 
L 1837 2214 
Q 1837 2502 1699 2646 
Q 1562 2790 1338 2790 
Q 1146 2790 1018 2697 
Q 890 2605 890 2477 
Q 890 2419 909 2348 
Q 928 2278 928 2208 
Q 928 2112 841 2029 
Q 755 1946 634 1946 
Q 525 1946 441 2029 
Q 358 2112 358 2240 
Q 358 2547 685 2752 
Q 986 2944 1421 2944 
Q 1939 2944 2176 2656 
Q 2291 2522 2323 2384 
Q 2355 2246 2355 1946 
L 2355 723 
Q 2355 301 2554 301 
Q 2682 301 2829 422 
z
M 1837 813 
L 1837 1715 
Q 1248 1510 1018 1293 
Q 800 1094 800 800 
Q 800 557 921 432 
Q 1043 307 1242 307 
Q 1453 307 1613 410 
Q 1747 506 1792 589 
Q 1837 672 1837 813 
z
" transform="scale(0.015625)"/>
       <path id="STIXGeneral-Regular-6e" d="M 3104 0 
L 1773 0 
L 1779 96 
Q 2016 115 2096 233 
Q 2176 352 2176 672 
L 2176 1946 
Q 2176 2592 1709 2592 
Q 1549 2592 1408 2515 
Q 1267 2438 1050 2227 
L 1050 461 
Q 1050 269 1136 192 
Q 1222 115 1466 96 
L 1466 0 
L 115 0 
L 115 96 
Q 358 115 435 214 
Q 512 314 512 602 
L 512 2157 
Q 512 2394 467 2483 
Q 422 2573 288 2573 
Q 160 2573 102 2547 
L 102 2656 
Q 550 2784 979 2944 
L 1030 2925 
L 1030 2426 
L 1037 2426 
Q 1491 2944 1958 2944 
Q 2323 2944 2518 2688 
Q 2714 2432 2714 1958 
L 2714 544 
Q 2714 288 2790 205 
Q 2867 122 3104 96 
L 3104 0 
z
" transform="scale(0.015625)"/>
       <path id="STIXGeneral-Regular-63" d="M 2547 998 
L 2637 941 
Q 2362 403 2112 205 
Q 1786 -64 1376 -64 
Q 845 -64 502 336 
Q 160 736 160 1357 
Q 160 2170 698 2618 
Q 1094 2944 1562 2944 
Q 1965 2944 2256 2749 
Q 2547 2554 2547 2285 
Q 2547 2176 2457 2096 
Q 2368 2016 2246 2016 
Q 2022 2016 1939 2310 
L 1901 2451 
Q 1850 2630 1773 2694 
Q 1696 2758 1523 2758 
Q 1133 2758 893 2451 
Q 653 2144 653 1645 
Q 653 1094 928 745 
Q 1203 397 1645 397 
Q 1920 397 2118 528 
Q 2317 659 2547 998 
z
" transform="scale(0.015625)"/>
       <path id="STIXGeneral-Regular-65" d="M 2611 1050 
L 2714 1005 
Q 2330 -64 1376 -64 
Q 813 -64 486 329 
Q 160 723 160 1389 
Q 160 2074 525 2509 
Q 890 2944 1485 2944 
Q 2061 2944 2374 2502 
Q 2560 2246 2592 1773 
L 621 1773 
Q 646 1370 700 1158 
Q 755 947 915 730 
Q 1184 378 1626 378 
Q 1939 378 2153 531 
Q 2368 685 2611 1050 
z
M 634 1978 
L 1939 1978 
Q 1882 2381 1750 2547 
Q 1619 2714 1312 2714 
Q 1043 2714 864 2525 
Q 685 2336 634 1978 
z
" transform="scale(0.015625)"/>
      </defs>
      <use xlink:href="#STIXGeneral-Regular-64"/>
      <use xlink:href="#STIXGeneral-Regular-69" x="49.999985"/>
      <use xlink:href="#STIXGeneral-Regular-73" x="77.799973"/>
      <use xlink:href="#STIXGeneral-Regular-74" x="116.699966"/>
      <use xlink:href="#STIXGeneral-Regular-61" x="144.499954"/>
      <use xlink:href="#STIXGeneral-Regular-6e" x="188.899948"/>
      <use xlink:href="#STIXGeneral-Regular-63" x="238.899933"/>
      <use xlink:href="#STIXGeneral-Regular-65" x="283.299927"/>
     </g>
    </g>
   </g>
   <g id="matplotlib.axis_2">
    <g id="ytick_1">
     <g id="line2d_6">
      <defs>
       <path id="m9d90fe2203" d="M 0 0 
L 3.5 0 
" style="stroke: #000000; stroke-width: 0.8"/>
      </defs>
      <g>
       <use xlink:href="#m9d90fe2203" x="43.058437" y="123.917937" style="stroke: #000000; stroke-width: 0.8"/>
      </g>
     </g>
     <g id="text_7">
      <!-- $\mathdefault{10^{-10}}$ -->
      <g transform="translate(19.308437 126.991297) scale(0.09 -0.09)">
       <defs>
        <path id="STIXGeneral-Regular-2212" d="M 3974 1408 
L 410 1408 
L 410 1830 
L 3974 1830 
L 3974 1408 
z
" transform="scale(0.015625)"/>
       </defs>
       <use xlink:href="#STIXGeneral-Regular-31" transform="translate(0 0.684375)"/>
       <use xlink:href="#STIXGeneral-Regular-30" transform="translate(49.999985 0.684375)"/>
       <use xlink:href="#STIXGeneral-Regular-2212" transform="translate(101.574969 36.684375) scale(0.7)"/>
       <use xlink:href="#STIXGeneral-Regular-31" transform="translate(149.524959 36.684375) scale(0.7)"/>
       <use xlink:href="#STIXGeneral-Regular-30" transform="translate(184.524948 36.684375) scale(0.7)"/>
      </g>
     </g>
    </g>
    <g id="ytick_2">
     <g id="line2d_7">
      <g>
       <use xlink:href="#m9d90fe2203" x="43.058437" y="97.164966" style="stroke: #000000; stroke-width: 0.8"/>
      </g>
     </g>
     <g id="text_8">
      <!-- $\mathdefault{10^{-8}}$ -->
      <g transform="translate(22.458437 100.238325) scale(0.09 -0.09)">
       <defs>
        <path id="STIXGeneral-Regular-38" d="M 2848 992 
Q 2848 499 2505 204 
Q 2163 -90 1587 -90 
Q 1050 -90 704 204 
Q 358 499 358 954 
Q 358 1293 524 1533 
Q 691 1773 1190 2125 
Q 710 2522 553 2765 
Q 397 3008 397 3328 
Q 397 3782 745 4054 
Q 1094 4326 1638 4326 
Q 2106 4326 2410 4060 
Q 2714 3795 2714 3411 
Q 2714 3059 2531 2848 
Q 2349 2637 1856 2374 
Q 2432 1990 2640 1689 
Q 2848 1389 2848 992 
z
M 2272 3411 
Q 2272 3744 2086 3945 
Q 1901 4147 1574 4147 
Q 1248 4147 1059 3977 
Q 870 3808 870 3513 
Q 870 3219 1059 2979 
Q 1248 2739 1670 2490 
Q 1997 2682 2134 2896 
Q 2272 3110 2272 3411 
z
M 1734 1741 
L 1357 1997 
Q 1075 1766 960 1545 
Q 845 1325 845 1011 
Q 845 576 1065 333 
Q 1286 90 1658 90 
Q 1971 90 2166 285 
Q 2362 480 2362 794 
Q 2362 1082 2214 1299 
Q 2067 1517 1734 1741 
z
" transform="scale(0.015625)"/>
       </defs>
       <use xlink:href="#STIXGeneral-Regular-31" transform="translate(0 0.684375)"/>
       <use xlink:href="#STIXGeneral-Regular-30" transform="translate(49.999985 0.684375)"/>
       <use xlink:href="#STIXGeneral-Regular-2212" transform="translate(101.574969 36.684375) scale(0.7)"/>
       <use xlink:href="#STIXGeneral-Regular-38" transform="translate(149.524959 36.684375) scale(0.7)"/>
      </g>
     </g>
    </g>
    <g id="ytick_3">
     <g id="line2d_8">
      <g>
       <use xlink:href="#m9d90fe2203" x="43.058437" y="70.411994" style="stroke: #000000; stroke-width: 0.8"/>
      </g>
     </g>
     <g id="text_9">
      <!-- $\mathdefault{10^{-6}}$ -->
      <g transform="translate(22.458437 73.485353) scale(0.09 -0.09)">
       <defs>
        <path id="STIXGeneral-Regular-36" d="M 2854 4378 
L 2867 4275 
Q 2112 4154 1606 3664 
Q 1101 3174 973 2451 
Q 1344 2739 1786 2739 
Q 2349 2739 2672 2380 
Q 2995 2022 2995 1402 
Q 2995 774 2669 378 
Q 2291 -90 1651 -90 
Q 870 -90 518 557 
Q 218 1107 218 1786 
Q 218 2835 915 3552 
Q 1312 3962 1731 4131 
Q 2150 4301 2854 4378 
z
M 2419 1203 
Q 2419 2445 1555 2445 
Q 1235 2445 1024 2275 
Q 813 2106 813 1702 
Q 813 954 1046 522 
Q 1280 90 1722 90 
Q 2061 90 2240 394 
Q 2419 698 2419 1203 
z
" transform="scale(0.015625)"/>
       </defs>
       <use xlink:href="#STIXGeneral-Regular-31" transform="translate(0 0.115625)"/>
       <use xlink:href="#STIXGeneral-Regular-30" transform="translate(49.999985 0.115625)"/>
       <use xlink:href="#STIXGeneral-Regular-2212" transform="translate(101.574969 36.115625) scale(0.7)"/>
       <use xlink:href="#STIXGeneral-Regular-36" transform="translate(149.524959 36.115625) scale(0.7)"/>
      </g>
     </g>
    </g>
    <g id="ytick_4">
     <g id="line2d_9">
      <g>
       <use xlink:href="#m9d90fe2203" x="43.058437" y="43.659022" style="stroke: #000000; stroke-width: 0.8"/>
      </g>
     </g>
     <g id="text_10">
      <!-- $\mathdefault{10^{-4}}$ -->
      <g transform="translate(22.458437 46.732382) scale(0.09 -0.09)">
       <use xlink:href="#STIXGeneral-Regular-31" transform="translate(0 0.684375)"/>
       <use xlink:href="#STIXGeneral-Regular-30" transform="translate(49.999985 0.684375)"/>
       <use xlink:href="#STIXGeneral-Regular-2212" transform="translate(101.574969 36.684375) scale(0.7)"/>
       <use xlink:href="#STIXGeneral-Regular-34" transform="translate(149.524959 36.684375) scale(0.7)"/>
      </g>
     </g>
    </g>
    <g id="ytick_5">
     <g id="line2d_10">
      <g>
       <use xlink:href="#m9d90fe2203" x="43.058437" y="16.906051" style="stroke: #000000; stroke-width: 0.8"/>
      </g>
     </g>
     <g id="text_11">
      <!-- $\mathdefault{10^{-2}}$ -->
      <g transform="translate(22.458437 19.97941) scale(0.09 -0.09)">
       <use xlink:href="#STIXGeneral-Regular-31" transform="translate(0 0.684375)"/>
       <use xlink:href="#STIXGeneral-Regular-30" transform="translate(49.999985 0.684375)"/>
       <use xlink:href="#STIXGeneral-Regular-2212" transform="translate(101.574969 36.684375) scale(0.7)"/>
       <use xlink:href="#STIXGeneral-Regular-32" transform="translate(149.524959 36.684375) scale(0.7)"/>
      </g>
     </g>
    </g>
    <g id="text_12">
     <!-- Two body probability -->
     <g transform="translate(13.346719 116.19564) rotate(-90) scale(0.09 -0.09)">
      <defs>
       <path id="STIXGeneral-Regular-54" d="M 3795 3149 
L 3642 3149 
Q 3539 3674 3353 3821 
Q 3168 3968 2656 3968 
L 2278 3968 
L 2278 710 
Q 2278 346 2387 243 
Q 2496 141 2893 122 
L 2893 0 
L 1024 0 
L 1024 122 
Q 1427 147 1526 256 
Q 1626 365 1626 787 
L 1626 3968 
L 1242 3968 
Q 723 3968 540 3817 
Q 358 3667 262 3149 
L 109 3149 
L 154 4237 
L 3750 4237 
L 3795 3149 
z
" transform="scale(0.015625)"/>
       <path id="STIXGeneral-Regular-77" d="M 4442 2880 
L 4442 2784 
Q 4346 2752 4301 2691 
Q 4256 2630 4179 2438 
L 3296 224 
Q 3168 -90 3117 -90 
Q 3085 -90 3062 -48 
Q 3040 -6 2963 186 
L 2381 1696 
L 1664 160 
Q 1549 -90 1504 -90 
Q 1446 -90 1338 192 
L 474 2381 
Q 378 2630 314 2700 
Q 250 2771 134 2784 
L 134 2880 
L 1286 2880 
L 1286 2784 
Q 1120 2765 1056 2720 
Q 992 2675 992 2573 
Q 992 2477 1030 2381 
L 1664 710 
L 2246 1984 
L 2118 2342 
Q 2029 2598 1942 2681 
Q 1856 2765 1677 2784 
L 1677 2880 
L 2976 2880 
L 2976 2784 
Q 2752 2752 2678 2707 
Q 2605 2662 2605 2560 
Q 2605 2458 2714 2176 
L 3251 742 
L 3827 2163 
Q 3936 2432 3936 2592 
Q 3936 2669 3875 2710 
Q 3814 2752 3654 2784 
L 3654 2880 
L 4442 2880 
z
" transform="scale(0.015625)"/>
       <path id="STIXGeneral-Regular-6f" d="M 3008 1478 
Q 3008 806 2608 371 
Q 2208 -64 1568 -64 
Q 979 -64 582 368 
Q 186 800 186 1459 
Q 186 2125 582 2534 
Q 979 2944 1626 2944 
Q 2221 2944 2614 2537 
Q 3008 2131 3008 1478 
z
M 2432 1306 
Q 2432 2035 2112 2445 
Q 1856 2765 1504 2765 
Q 1171 2765 966 2493 
Q 762 2221 762 1747 
Q 762 928 1101 435 
Q 1318 115 1677 115 
Q 2029 115 2230 432 
Q 2432 749 2432 1306 
z
" transform="scale(0.015625)"/>
       <path id="STIXGeneral-Regular-20" transform="scale(0.015625)"/>
       <path id="STIXGeneral-Regular-62" d="M 979 4358 
L 979 2406 
Q 1082 2650 1315 2797 
Q 1549 2944 1843 2944 
Q 2349 2944 2672 2541 
Q 2995 2138 2995 1536 
Q 2995 832 2566 384 
Q 2138 -64 1498 -64 
Q 1107 -64 774 67 
Q 442 198 442 358 
L 442 3622 
Q 442 3859 384 3926 
Q 326 3994 128 3994 
Q 83 3994 19 3981 
L 19 4090 
L 211 4147 
Q 864 4346 947 4371 
L 979 4358 
z
M 979 2035 
L 979 474 
Q 979 326 1161 233 
Q 1344 141 1600 141 
Q 1978 141 2195 416 
Q 2432 710 2432 1261 
Q 2432 1888 2182 2240 
Q 1971 2541 1613 2541 
Q 1357 2541 1168 2390 
Q 979 2240 979 2035 
z
" transform="scale(0.015625)"/>
       <path id="STIXGeneral-Regular-79" d="M 3040 2880 
L 3040 2784 
Q 2925 2771 2854 2700 
Q 2784 2630 2720 2458 
L 1760 -160 
Q 1510 -838 1257 -1116 
Q 1005 -1395 640 -1395 
Q 435 -1395 313 -1289 
Q 192 -1184 192 -1024 
Q 192 -902 272 -816 
Q 352 -730 467 -730 
Q 653 -730 800 -813 
Q 883 -858 966 -858 
Q 1101 -858 1286 -576 
Q 1376 -448 1459 -211 
Q 1542 26 1542 115 
Q 1542 198 1274 762 
L 429 2566 
Q 346 2752 90 2790 
L 90 2880 
L 1402 2880 
L 1402 2784 
Q 1197 2778 1117 2739 
Q 1037 2701 1037 2611 
Q 1037 2541 1120 2349 
L 1837 749 
L 2458 2515 
Q 2483 2573 2483 2630 
Q 2483 2784 2189 2784 
L 2189 2880 
L 3040 2880 
z
" transform="scale(0.015625)"/>
       <path id="STIXGeneral-Regular-70" d="M 1018 2931 
L 1018 2438 
Q 1421 2944 1939 2944 
Q 2406 2944 2707 2560 
Q 3008 2176 3008 1581 
Q 3008 883 2621 409 
Q 2234 -64 1664 -64 
Q 1466 -64 1328 -6 
Q 1190 51 1018 211 
L 1018 -794 
Q 1018 -1094 1120 -1180 
Q 1222 -1267 1581 -1274 
L 1581 -1389 
L 32 -1389 
L 32 -1280 
Q 314 -1254 397 -1171 
Q 480 -1088 480 -838 
L 480 2157 
Q 480 2381 429 2451 
Q 378 2522 218 2522 
Q 115 2522 58 2515 
L 58 2618 
Q 506 2752 979 2944 
L 1018 2931 
z
M 1018 2138 
L 1018 563 
Q 1018 422 1238 281 
Q 1459 141 1683 141 
Q 2029 141 2243 467 
Q 2458 794 2458 1325 
Q 2458 1888 2243 2224 
Q 2029 2560 1670 2560 
Q 1446 2560 1232 2419 
Q 1018 2278 1018 2138 
z
" transform="scale(0.015625)"/>
       <path id="STIXGeneral-Regular-72" d="M 1024 2931 
L 1024 2342 
Q 1267 2688 1430 2816 
Q 1594 2944 1792 2944 
Q 1958 2944 2051 2854 
Q 2144 2765 2144 2605 
Q 2144 2470 2077 2393 
Q 2010 2317 1894 2317 
Q 1773 2317 1638 2445 
Q 1536 2541 1472 2541 
Q 1338 2541 1181 2355 
Q 1024 2170 1024 2016 
L 1024 576 
Q 1024 301 1133 205 
Q 1242 109 1568 96 
L 1568 0 
L 32 0 
L 32 96 
Q 339 154 412 224 
Q 486 294 486 538 
L 486 2138 
Q 486 2349 438 2435 
Q 390 2522 269 2522 
Q 166 2522 45 2496 
L 45 2598 
Q 448 2726 992 2944 
L 1024 2931 
z
" transform="scale(0.015625)"/>
       <path id="STIXGeneral-Regular-6c" d="M 1645 0 
L 134 0 
L 134 96 
Q 435 122 531 221 
Q 627 320 627 589 
L 627 3590 
Q 627 3821 569 3910 
Q 512 4000 358 4000 
Q 224 4000 122 3987 
L 122 4090 
Q 730 4237 1133 4371 
L 1165 4346 
L 1165 557 
Q 1165 288 1254 201 
Q 1344 115 1645 96 
L 1645 0 
z
" transform="scale(0.015625)"/>
      </defs>
      <use xlink:href="#STIXGeneral-Regular-54"/>
      <use xlink:href="#STIXGeneral-Regular-77" x="61.099991"/>
      <use xlink:href="#STIXGeneral-Regular-6f" x="133.299973"/>
      <use xlink:href="#STIXGeneral-Regular-20" x="183.299957"/>
      <use xlink:href="#STIXGeneral-Regular-62" x="208.299942"/>
      <use xlink:href="#STIXGeneral-Regular-6f" x="258.299927"/>
      <use xlink:href="#STIXGeneral-Regular-64" x="308.299911"/>
      <use xlink:href="#STIXGeneral-Regular-79" x="358.299896"/>
      <use xlink:href="#STIXGeneral-Regular-20" x="408.299881"/>
      <use xlink:href="#STIXGeneral-Regular-70" x="433.299866"/>
      <use xlink:href="#STIXGeneral-Regular-72" x="483.29985"/>
      <use xlink:href="#STIXGeneral-Regular-6f" x="516.599838"/>
      <use xlink:href="#STIXGeneral-Regular-62" x="566.599823"/>
      <use xlink:href="#STIXGeneral-Regular-61" x="616.599808"/>
      <use xlink:href="#STIXGeneral-Regular-62" x="660.999802"/>
      <use xlink:href="#STIXGeneral-Regular-69" x="710.999786"/>
      <use xlink:href="#STIXGeneral-Regular-6c" x="738.799774"/>
      <use xlink:href="#STIXGeneral-Regular-69" x="766.599762"/>
      <use xlink:href="#STIXGeneral-Regular-74" x="794.39975"/>
      <use xlink:href="#STIXGeneral-Regular-79" x="822.199738"/>
     </g>
    </g>
   </g>
   <g id="line2d_11">
    <path d="M 53.260982 27.181669 
L 54.975695 26.161096 
L 56.690409 27.98169 
L 58.405122 29.513739 
L 60.119835 30.992964 
L 61.834549 32.53393 
L 63.549262 33.103016 
L 65.263975 35.184767 
L 66.978689 36.374403 
L 68.693402 37.698882 
L 70.408115 39.414586 
L 72.122829 40.365404 
L 73.837542 41.374714 
L 75.552255 42.011327 
L 77.266969 43.302528 
L 78.981682 44.500949 
L 80.696395 44.86987 
L 82.411109 45.744764 
L 84.125822 47.41753 
L 85.840536 48.314575 
L 87.555249 48.318364 
L 89.269962 49.365606 
L 90.984676 50.377086 
L 92.699389 50.935005 
L 94.414102 51.775646 
L 96.128816 53.141587 
L 97.843529 54.076435 
L 99.558242 54.200571 
L 101.272956 54.97687 
L 102.987669 56.096207 
L 104.702382 57.067347 
L 106.417096 57.008191 
L 108.131809 57.205644 
L 109.846522 57.977781 
L 111.561236 59.519534 
L 113.275949 60.324011 
L 114.990662 61.34054 
L 116.705376 60.63776 
L 118.420089 61.546103 
L 120.134802 63.077185 
L 121.849516 63.656979 
L 123.564229 63.543768 
L 125.278942 63.442389 
L 126.993656 64.907057 
L 128.708369 65.13836 
L 130.423083 66.343398 
L 132.137796 66.326117 
L 133.852509 66.997664 
L 135.567223 67.473786 
L 137.281936 67.085989 
L 138.996649 68.295612 
L 140.711363 68.389344 
L 142.426076 68.714496 
L 144.140789 70.587208 
L 145.855503 71.215906 
L 147.570216 71.549727 
L 149.284929 72.108562 
L 150.999643 71.304833 
L 152.714356 72.807276 
L 154.429069 72.911476 
L 156.143783 73.347467 
L 157.858496 74.022426 
L 159.573209 73.857467 
L 161.287923 75.61505 
L 163.002636 76.189535 
L 164.717349 78.104525 
L 166.432063 76.727381 
L 168.146776 77.491781 
L 169.861489 79.686397 
L 171.576203 78.929034 
L 173.290916 80.495443 
L 175.00563 81.214394 
L 176.720343 79.548604 
L 178.435056 81.754276 
L 180.14977 83.679841 
L 181.864483 84.307287 
L 183.579196 82.466083 
L 185.29391 85.12121 
L 187.008623 85.840876 
L 188.723336 85.829088 
L 190.43805 88.619319 
L 192.152763 88.088263 
L 193.867476 88.329119 
L 195.58219 91.864174 
L 197.296903 91.210444 
L 199.011616 96.714063 
L 200.72633 94.525027 
L 202.441043 94.645357 
L 204.155756 95.866101 
L 205.87047 96.70739 
L 207.585183 98.045462 
L 209.299896 99.032596 
L 211.01461 99.8564 
L 212.729323 101.012938 
L 214.444037 105.150676 
L 216.15875 106.436391 
L 217.873463 108.654022 
L 219.588177 105.269403 
L 221.30289 114.302651 
" clip-path="url(#p3d506b9210)" style="fill: none; stroke: #1f77b4; stroke-width: 1.5; stroke-linecap: square"/>
   </g>
   <g id="line2d_12">
    <path d="M 52.730965 13.540655 
L 53.915662 15.067157 
L 55.100359 18.927227 
L 56.285055 21.926041 
L 57.469752 23.311078 
L 58.654449 25.713736 
L 59.839145 26.874043 
L 61.023842 29.059711 
L 62.208539 29.963668 
L 63.393235 30.884068 
L 64.577932 33.314911 
L 65.762629 33.371853 
L 66.947325 34.650134 
L 68.132022 35.790644 
L 69.316719 36.823873 
L 70.501416 38.129126 
L 71.686112 38.868549 
L 72.870809 39.953828 
L 74.055506 40.710797 
L 75.240202 41.407441 
L 76.424899 42.177736 
L 77.609596 43.715225 
L 78.794292 44.397178 
L 79.978989 45.269535 
L 81.163686 47.499013 
L 82.348382 46.941172 
L 83.533079 47.745875 
L 84.717776 48.781 
L 85.902472 49.709022 
L 87.087169 49.691693 
L 88.271866 50.330686 
L 89.456562 51.415773 
L 90.641259 52.574359 
L 91.825956 54.294385 
L 93.010653 54.082285 
L 94.195349 55.858582 
L 95.380046 55.417754 
L 96.564743 57.490202 
L 97.749439 56.641389 
L 98.934136 58.09919 
L 100.118833 58.134328 
L 101.303529 56.760748 
L 102.488226 59.991734 
L 103.672923 59.560692 
L 104.857619 61.012394 
L 106.042316 62.486174 
L 107.227013 61.417423 
L 108.411709 63.973052 
L 109.596406 64.316598 
L 110.781103 61.578689 
L 111.965799 64.335646 
L 113.150496 64.725042 
L 114.335193 66.566531 
L 115.51989 66.051074 
L 116.704586 65.637784 
L 117.889283 68.614349 
L 119.07398 67.929025 
L 120.258676 67.455079 
L 121.443373 69.95944 
L 122.62807 72.365884 
L 123.812766 67.987717 
L 124.997463 72.953435 
L 126.18216 70.733716 
L 127.366856 71.386465 
L 128.551553 72.094106 
L 129.73625 73.119259 
L 130.920946 73.453223 
L 132.105643 74.556079 
L 133.29034 78.327256 
L 134.475036 73.477459 
L 135.659733 81.811504 
L 136.84443 74.869532 
L 138.029127 73.997671 
L 139.213823 75.739794 
L 140.39852 74.997284 
L 141.583217 74.752524 
L 142.767913 77.738745 
L 143.95261 75.22277 
L 145.137307 85.372209 
L 146.322003 79.372161 
L 147.5067 85.497752 
L 148.691397 86.955648 
L 149.876093 79.515196 
L 151.06079 78.355212 
L 152.245487 81.620765 
L 153.430183 82.782061 
L 154.61488 84.491879 
L 155.799577 96.553167 
L 156.984273 91.84917 
L 158.16897 86.802135 
L 159.353667 83.877498 
L 160.538364 96.201159 
L 161.72306 100.924912 
L 162.907757 86.583148 
L 164.092454 107.926675 
L 165.27715 94.06322 
L 166.461847 93.265435 
L 167.646544 108.93836 
L 168.83124 91.136018 
" clip-path="url(#p3d506b9210)" style="fill: none; stroke: #ff7f0e; stroke-width: 1.5; stroke-linecap: square"/>
   </g>
   <g id="line2d_13">
    <path d="M 51.546269 15.683736 
L 52.996048 14.011584 
L 54.445827 17.388344 
L 55.895606 20.964569 
L 57.345385 22.53655 
L 58.795164 25.899506 
L 60.244943 27.806958 
L 61.694722 29.170738 
L 63.144501 31.864877 
L 64.59428 32.536494 
L 66.044059 34.200379 
L 67.493838 35.207885 
L 68.943617 37.02466 
L 70.393396 37.065904 
L 71.843175 38.101188 
L 73.292954 40.146176 
L 74.742733 40.798208 
L 76.192512 41.320869 
L 77.642291 43.783888 
L 79.09207 45.105208 
L 80.541849 47.116745 
L 81.991628 47.073829 
L 83.441407 48.634372 
L 84.891186 49.263449 
L 86.340965 50.039881 
L 87.790744 50.531091 
L 89.240523 51.115568 
L 90.690302 53.105525 
L 92.140081 53.218788 
L 93.58986 55.250023 
L 95.039639 55.802481 
L 96.489418 56.584742 
L 97.939197 57.0176 
L 99.388976 58.549193 
L 100.838755 61.694244 
L 102.288534 62.441436 
L 103.738314 61.838332 
L 105.188093 64.001659 
L 106.637872 66.77509 
L 108.087651 66.681951 
L 109.53743 69.018068 
L 110.987209 65.925309 
L 112.436988 67.976274 
L 113.886767 69.358953 
L 115.336546 71.245384 
L 116.786325 74.812745 
L 118.236104 74.138903 
L 119.685883 73.245747 
L 121.135662 74.665634 
L 122.585441 73.762663 
L 124.03522 78.334403 
L 125.484999 78.278675 
L 126.934778 79.333023 
L 128.384557 82.135633 
L 129.834336 80.549429 
L 131.284115 80.295985 
L 132.733894 85.52996 
L 134.183673 81.654956 
L 135.633452 86.00163 
L 137.083231 87.198457 
L 138.53301 91.170085 
L 139.982789 86.866059 
L 141.432568 92.101964 
L 142.882347 91.154652 
L 144.332126 98.302741 
L 145.781905 99.342251 
L 147.231684 98.443113 
L 148.681463 98.591422 
L 150.131242 99.713233 
L 151.581021 101.037858 
L 153.0308 100.037199 
L 154.480579 102.593435 
L 155.930358 108.883659 
L 157.380138 101.184835 
L 158.829917 101.665422 
L 160.279696 104.41344 
L 161.729475 97.734576 
L 163.179254 105.309128 
L 164.629033 110.515602 
L 166.078812 103.185069 
L 167.528591 108.455314 
L 168.97837 104.837372 
L 170.428149 116.811222 
L 171.877928 101.543222 
L 173.327707 102.15808 
L 174.777486 111.456355 
L 174.784829 178.594405 
M 179.119821 178.594405 
L 179.126823 114.593452 
L 180.576602 117.680724 
L 180.583267 178.594405 
" clip-path="url(#p3d506b9210)" style="fill: none; stroke: #2ca02c; stroke-width: 1.5; stroke-linecap: square"/>
   </g>
   <g id="line2d_14">
    <path d="M 51.546269 15.891622 
L 53.216012 14.233668 
L 54.885755 17.827829 
L 56.555498 21.291511 
L 58.225241 24.626844 
L 59.894984 27.194286 
L 61.564728 29.203936 
L 63.234471 31.524138 
L 64.904214 33.265318 
L 66.573957 35.117381 
L 68.2437 36.822134 
L 69.913443 38.043443 
L 71.583186 39.641146 
L 73.25293 40.848273 
L 74.922673 42.423596 
L 76.592416 43.813254 
L 78.262159 44.692455 
L 79.931902 46.230535 
L 81.601645 47.607746 
L 83.271389 48.525413 
L 84.941132 49.508168 
L 86.610875 50.693413 
L 88.280618 51.836836 
L 89.950361 53.105111 
L 91.620104 54.105322 
L 93.289848 55.496835 
L 94.959591 56.621668 
L 96.629334 57.467574 
L 98.299077 58.47239 
L 99.96882 59.617944 
L 101.638563 60.438278 
L 103.308306 62.111558 
L 104.97805 62.752504 
L 106.647793 63.997385 
L 108.317536 64.765335 
L 109.987279 65.517265 
L 111.657022 66.779863 
L 113.326765 67.400043 
L 114.996509 68.852078 
L 116.666252 69.488275 
L 118.335995 71.216267 
L 120.005738 72.104971 
L 121.675481 73.503441 
L 123.345224 74.894447 
L 125.014967 75.451002 
L 126.684711 77.134771 
L 128.354454 77.257623 
L 130.024197 77.72319 
L 131.69394 79.067429 
L 133.363683 80.329574 
L 135.033426 81.300699 
L 136.70317 82.00092 
L 138.372913 83.686596 
L 140.042656 84.028689 
L 141.712399 85.557484 
L 143.382142 86.911366 
L 145.051885 87.007665 
L 146.721629 87.23019 
L 148.391372 89.555323 
L 150.061115 89.627636 
L 151.730858 90.08277 
L 153.400601 93.258778 
L 155.070344 95.009169 
L 156.740087 94.843313 
L 158.409831 94.878287 
L 160.079574 96.2976 
L 161.749317 96.488647 
L 163.41906 97.422454 
L 165.088803 97.687961 
L 166.758546 100.853681 
L 168.42829 100.187925 
L 170.098033 101.789765 
L 171.767776 103.03206 
L 173.437519 103.428582 
L 175.107262 104.301556 
L 176.777005 104.646324 
L 178.446749 107.162745 
L 180.116492 107.871436 
L 181.786235 106.334739 
L 183.455978 107.358052 
L 185.125721 110.147943 
L 186.795464 112.94834 
L 188.465207 119.639148 
L 190.134951 119.54454 
L 191.804694 135.247038 
L 193.474437 119.244649 
L 193.481918 178.594405 
M 196.807328 178.594405 
L 196.813923 126.297054 
L 196.820519 178.594405 
M 203.48704 178.594405 
L 203.492896 132.181709 
L 205.162639 140.353751 
L 206.832382 136.408866 
L 208.502125 128.519266 
L 208.508441 178.594405 
" clip-path="url(#p3d506b9210)" style="fill: none; stroke: #d62728; stroke-width: 1.5; stroke-linecap: square"/>
   </g>
   <g id="line2d_15">
    <path d="M 51.546269 15.891622 
L 53.216012 18.851694 
L 54.885755 21.009807 
L 56.555498 22.942255 
L 58.225241 24.741345 
L 59.894984 26.44736 
L 61.564728 28.082691 
L 63.234471 29.661489 
L 64.904214 31.193452 
L 66.573957 32.685611 
L 68.2437 34.143278 
L 69.913443 35.570598 
L 71.583186 36.970887 
L 73.25293 38.346853 
L 74.922673 39.700747 
L 76.592416 41.034465 
L 78.262159 42.349625 
L 79.931902 43.647625 
L 81.601645 44.92968 
L 83.271389 46.196855 
L 84.941132 47.450095 
L 86.610875 48.690239 
L 88.280618 49.918037 
L 89.950361 51.134168 
L 91.620104 52.339241 
L 93.289848 53.533813 
L 94.959591 54.718389 
L 96.629334 55.893433 
L 98.299077 57.059372 
L 99.96882 58.216596 
L 101.638563 59.365469 
L 103.308306 60.506326 
L 104.97805 61.63948 
L 106.647793 62.76522 
L 108.317536 63.883818 
L 109.987279 64.995528 
L 111.657022 66.100586 
L 113.326765 67.199215 
L 114.996509 68.291626 
L 116.666252 69.378016 
L 118.335995 70.458571 
L 120.005738 71.533468 
L 121.675481 72.602872 
L 123.345224 73.666942 
L 125.014967 74.725828 
L 126.684711 75.779671 
L 128.354454 76.828608 
L 130.024197 77.872766 
L 131.69394 78.912269 
L 133.363683 79.947234 
L 135.033426 80.977772 
L 136.70317 82.003991 
L 138.372913 83.025993 
L 140.042656 84.043875 
L 141.712399 85.057732 
L 143.382142 86.067654 
L 145.051885 87.073726 
L 146.721629 88.076033 
L 148.391372 89.074654 
L 150.061115 90.069665 
L 151.730858 91.061141 
L 153.400601 92.049152 
L 155.070344 93.033768 
L 156.740087 94.015054 
L 158.409831 94.993075 
L 160.079574 95.967892 
L 161.749317 96.939564 
L 163.41906 97.908149 
L 165.088803 98.873703 
L 166.758546 99.83628 
L 168.42829 100.795931 
L 170.098033 101.752708 
L 171.767776 102.706659 
L 173.437519 103.657831 
L 175.107262 104.606271 
L 176.777005 105.552024 
L 178.446749 106.495131 
L 180.116492 107.435637 
L 181.786235 108.37358 
L 183.455978 109.309002 
L 185.125721 110.241941 
L 186.795464 111.172433 
L 188.465207 112.100517 
L 190.134951 113.026226 
L 191.804694 113.949596 
L 193.474437 114.870661 
L 195.14418 115.789453 
L 196.813923 116.706004 
L 198.483666 117.620345 
L 200.15341 118.532507 
L 201.823153 119.442519 
L 203.492896 120.35041 
L 205.162639 121.256208 
L 206.832382 122.159941 
L 208.502125 123.061636 
L 210.171869 123.961318 
L 211.841612 124.859014 
L 213.511355 125.754748 
L 215.181098 126.648545 
L 216.850841 127.540429 
" clip-path="url(#p3d506b9210)" style="fill: none; stroke: #9467bd; stroke-width: 1.5; stroke-linecap: square"/>
   </g>
   <g id="patch_3">
    <path d="M 43.058437 146.694405 
L 43.058437 7.2 
" style="fill: none; stroke: #000000; stroke-width: 0.8; stroke-linejoin: miter; stroke-linecap: square"/>
   </g>
   <g id="patch_4">
    <path d="M 229.790721 146.694405 
L 229.790721 7.2 
" style="fill: none; stroke: #000000; stroke-width: 0.8; stroke-linejoin: miter; stroke-linecap: square"/>
   </g>
   <g id="patch_5">
    <path d="M 43.058437 146.694405 
L 229.790721 146.694405 
" style="fill: none; stroke: #000000; stroke-width: 0.8; stroke-linejoin: miter; stroke-linecap: square"/>
   </g>
   <g id="patch_6">
    <path d="M 43.058437 7.2 
L 229.790721 7.2 
" style="fill: none; stroke: #000000; stroke-width: 0.8; stroke-linejoin: miter; stroke-linecap: square"/>
   </g>
   <g id="legend_1">
    <g id="patch_7">
     <path d="M 245.427335 84.33 
L 318.507335 84.33 
Q 320.307335 84.33 320.307335 82.53 
L 320.307335 13.5 
Q 320.307335 11.7 318.507335 11.7 
L 245.427335 11.7 
Q 243.627335 11.7 243.627335 13.5 
L 243.627335 82.53 
Q 243.627335 84.33 245.427335 84.33 
z
" style="fill: #ffffff; opacity: 0.8; stroke: #cccccc; stroke-linejoin: miter"/>
    </g>
    <g id="line2d_16">
     <path d="M 247.227335 19.62 
L 256.227335 19.62 
L 265.227335 19.62 
" style="fill: none; stroke: #1f77b4; stroke-width: 1.5; stroke-linecap: square"/>
    </g>
    <g id="text_13">
     <!-- $t = 10^3$ steps -->
     <g transform="translate(272.427335 22.77) scale(0.09 -0.09)">
      <defs>
       <path id="STIXGeneral-Italic-74" d="M 1894 2739 
L 1862 2534 
L 1325 2534 
L 768 435 
Q 755 384 755 346 
Q 755 243 851 243 
Q 928 243 1030 342 
Q 1133 442 1370 749 
L 1453 704 
Q 1158 256 969 93 
Q 781 -70 538 -70 
Q 243 -70 243 166 
Q 243 230 346 640 
L 845 2534 
L 365 2534 
L 358 2573 
Q 358 2688 570 2733 
Q 730 2771 992 2979 
Q 1254 3187 1421 3437 
Q 1459 3494 1510 3494 
Q 1568 3494 1568 3443 
Q 1568 3411 1562 3398 
L 1382 2739 
L 1894 2739 
z
" transform="scale(0.015625)"/>
       <path id="STIXGeneral-Regular-3d" d="M 4077 2048 
L 307 2048 
L 307 2470 
L 4077 2470 
L 4077 2048 
z
M 4077 768 
L 307 768 
L 307 1190 
L 4077 1190 
L 4077 768 
z
" transform="scale(0.015625)"/>
      </defs>
      <use xlink:href="#STIXGeneral-Italic-74" transform="translate(0 0.409375)"/>
      <use xlink:href="#STIXGeneral-Regular-3d" transform="translate(42.239984 0.409375)"/>
      <use xlink:href="#STIXGeneral-Regular-31" transform="translate(125.179965 0.409375)"/>
      <use xlink:href="#STIXGeneral-Regular-30" transform="translate(175.17995 0.409375)"/>
      <use xlink:href="#STIXGeneral-Regular-33" transform="translate(226.723216 35.684375) scale(0.7)"/>
      <use xlink:href="#STIXGeneral-Regular-20" transform="translate(266.13258 0.409375)"/>
      <use xlink:href="#STIXGeneral-Regular-73" transform="translate(291.132565 0.409375)"/>
      <use xlink:href="#STIXGeneral-Regular-74" transform="translate(330.032559 0.409375)"/>
      <use xlink:href="#STIXGeneral-Regular-65" transform="translate(357.832547 0.409375)"/>
      <use xlink:href="#STIXGeneral-Regular-70" transform="translate(402.232541 0.409375)"/>
      <use xlink:href="#STIXGeneral-Regular-73" transform="translate(452.232525 0.409375)"/>
     </g>
    </g>
    <g id="line2d_17">
     <path d="M 247.227335 33.57 
L 256.227335 33.57 
L 265.227335 33.57 
" style="fill: none; stroke: #ff7f0e; stroke-width: 1.5; stroke-linecap: square"/>
    </g>
    <g id="text_14">
     <!-- $t = 10^4$ steps -->
     <g transform="translate(272.427335 36.72) scale(0.09 -0.09)">
      <use xlink:href="#STIXGeneral-Italic-74" transform="translate(0 0.409375)"/>
      <use xlink:href="#STIXGeneral-Regular-3d" transform="translate(42.239984 0.409375)"/>
      <use xlink:href="#STIXGeneral-Regular-31" transform="translate(125.179965 0.409375)"/>
      <use xlink:href="#STIXGeneral-Regular-30" transform="translate(175.17995 0.409375)"/>
      <use xlink:href="#STIXGeneral-Regular-34" transform="translate(226.723216 35.684375) scale(0.7)"/>
      <use xlink:href="#STIXGeneral-Regular-20" transform="translate(266.13258 0.409375)"/>
      <use xlink:href="#STIXGeneral-Regular-73" transform="translate(291.132565 0.409375)"/>
      <use xlink:href="#STIXGeneral-Regular-74" transform="translate(330.032559 0.409375)"/>
      <use xlink:href="#STIXGeneral-Regular-65" transform="translate(357.832547 0.409375)"/>
      <use xlink:href="#STIXGeneral-Regular-70" transform="translate(402.232541 0.409375)"/>
      <use xlink:href="#STIXGeneral-Regular-73" transform="translate(452.232525 0.409375)"/>
     </g>
    </g>
    <g id="line2d_18">
     <path d="M 247.227335 47.61 
L 256.227335 47.61 
L 265.227335 47.61 
" style="fill: none; stroke: #2ca02c; stroke-width: 1.5; stroke-linecap: square"/>
    </g>
    <g id="text_15">
     <!-- $t = 10^5$ steps -->
     <g transform="translate(272.427335 50.76) scale(0.09 -0.09)">
      <defs>
       <path id="STIXGeneral-Regular-35" d="M 2803 4358 
L 2573 3814 
Q 2534 3731 2400 3731 
L 1158 3731 
L 902 3187 
Q 1606 3053 1920 2896 
Q 2234 2739 2502 2368 
Q 2726 2061 2726 1555 
Q 2726 1094 2576 780 
Q 2426 467 2099 224 
Q 1664 -90 1011 -90 
Q 646 -90 422 19 
Q 198 128 198 307 
Q 198 550 486 550 
Q 717 550 960 352 
Q 1210 147 1414 147 
Q 1747 147 2012 480 
Q 2278 813 2278 1229 
Q 2278 1843 1850 2189 
Q 1293 2637 486 2637 
Q 410 2637 410 2688 
L 416 2720 
L 1114 4237 
L 2438 4237 
Q 2547 4237 2608 4269 
Q 2669 4301 2746 4403 
L 2803 4358 
z
" transform="scale(0.015625)"/>
      </defs>
      <use xlink:href="#STIXGeneral-Italic-74" transform="translate(0 0.567188)"/>
      <use xlink:href="#STIXGeneral-Regular-3d" transform="translate(42.239984 0.567188)"/>
      <use xlink:href="#STIXGeneral-Regular-31" transform="translate(125.179965 0.567188)"/>
      <use xlink:href="#STIXGeneral-Regular-30" transform="translate(175.17995 0.567188)"/>
      <use xlink:href="#STIXGeneral-Regular-35" transform="translate(226.723216 35.842188) scale(0.7)"/>
      <use xlink:href="#STIXGeneral-Regular-20" transform="translate(266.13258 0.567188)"/>
      <use xlink:href="#STIXGeneral-Regular-73" transform="translate(291.132565 0.567188)"/>
      <use xlink:href="#STIXGeneral-Regular-74" transform="translate(330.032559 0.567188)"/>
      <use xlink:href="#STIXGeneral-Regular-65" transform="translate(357.832547 0.567188)"/>
      <use xlink:href="#STIXGeneral-Regular-70" transform="translate(402.232541 0.567188)"/>
      <use xlink:href="#STIXGeneral-Regular-73" transform="translate(452.232525 0.567188)"/>
     </g>
    </g>
    <g id="line2d_19">
     <path d="M 247.227335 61.65 
L 256.227335 61.65 
L 265.227335 61.65 
" style="fill: none; stroke: #d62728; stroke-width: 1.5; stroke-linecap: square"/>
    </g>
    <g id="text_16">
     <!-- $t = 10^6$ steps -->
     <g transform="translate(272.427335 64.8) scale(0.09 -0.09)">
      <use xlink:href="#STIXGeneral-Italic-74" transform="translate(0 0.840625)"/>
      <use xlink:href="#STIXGeneral-Regular-3d" transform="translate(42.239984 0.840625)"/>
      <use xlink:href="#STIXGeneral-Regular-31" transform="translate(125.179965 0.840625)"/>
      <use xlink:href="#STIXGeneral-Regular-30" transform="translate(175.17995 0.840625)"/>
      <use xlink:href="#STIXGeneral-Regular-36" transform="translate(226.723216 36.115625) scale(0.7)"/>
      <use xlink:href="#STIXGeneral-Regular-20" transform="translate(266.13258 0.840625)"/>
      <use xlink:href="#STIXGeneral-Regular-73" transform="translate(291.132565 0.840625)"/>
      <use xlink:href="#STIXGeneral-Regular-74" transform="translate(330.032559 0.840625)"/>
      <use xlink:href="#STIXGeneral-Regular-65" transform="translate(357.832547 0.840625)"/>
      <use xlink:href="#STIXGeneral-Regular-70" transform="translate(402.232541 0.840625)"/>
      <use xlink:href="#STIXGeneral-Regular-73" transform="translate(452.232525 0.840625)"/>
     </g>
    </g>
    <g id="line2d_20">
     <path d="M 247.227335 75.6 
L 256.227335 75.6 
L 265.227335 75.6 
" style="fill: none; stroke: #9467bd; stroke-width: 1.5; stroke-linecap: square"/>
    </g>
    <g id="text_17">
     <!-- $\exp(-t^0.79)$ -->
     <g transform="translate(272.427335 78.75) scale(0.09 -0.09)">
      <defs>
       <path id="STIXGeneral-Regular-78" d="M 3066 0 
L 1779 0 
L 1779 96 
Q 1939 109 1987 137 
Q 2035 166 2035 250 
Q 2035 307 1997 365 
L 1414 1261 
L 909 474 
Q 781 275 781 211 
Q 781 96 1037 96 
L 1037 0 
L 109 0 
L 109 96 
Q 269 109 355 169 
Q 442 230 576 422 
L 1306 1478 
L 704 2400 
Q 557 2624 454 2704 
Q 352 2784 211 2784 
L 154 2784 
L 154 2880 
L 1478 2880 
L 1478 2784 
Q 1203 2778 1203 2643 
Q 1203 2509 1498 2074 
Q 1581 1958 1587 1946 
Q 1619 1990 1779 2227 
Q 1811 2285 1856 2349 
Q 1901 2413 1923 2451 
Q 1946 2490 1971 2528 
Q 1997 2566 2006 2595 
Q 2016 2624 2016 2643 
Q 2016 2765 1760 2784 
L 1760 2880 
L 2771 2880 
L 2771 2784 
Q 2445 2771 2253 2502 
L 1722 1734 
L 2541 480 
Q 2790 96 3066 96 
L 3066 0 
z
" transform="scale(0.015625)"/>
       <path id="STIXGeneral-Regular-28" d="M 1946 -1030 
L 1869 -1133 
Q 1126 -710 716 32 
Q 307 774 307 1613 
Q 307 3386 1888 4326 
L 1946 4224 
Q 1293 3667 1075 3126 
Q 858 2586 858 1632 
Q 858 685 1082 96 
Q 1306 -493 1946 -1030 
z
" transform="scale(0.015625)"/>
       <path id="STIXGeneral-Regular-2e" d="M 1158 275 
Q 1158 134 1052 32 
Q 947 -70 800 -70 
Q 653 -70 550 32 
Q 448 134 448 281 
Q 448 429 553 534 
Q 659 640 806 640 
Q 947 640 1052 531 
Q 1158 422 1158 275 
z
" transform="scale(0.015625)"/>
       <path id="STIXGeneral-Regular-37" d="M 2874 4134 
L 1517 -51 
L 1101 -51 
L 2368 3763 
L 992 3763 
Q 717 3763 582 3667 
Q 448 3571 243 3238 
L 128 3296 
L 512 4237 
L 2874 4237 
L 2874 4134 
z
" transform="scale(0.015625)"/>
       <path id="STIXGeneral-Regular-39" d="M 378 -141 
L 358 -13 
Q 1094 115 1603 608 
Q 2112 1101 2304 1882 
Q 1933 1517 1344 1517 
Q 826 1517 509 1875 
Q 192 2234 192 2816 
Q 192 3462 573 3894 
Q 954 4326 1523 4326 
Q 2131 4326 2528 3840 
Q 2938 3328 2938 2522 
Q 2938 1958 2742 1462 
Q 2547 966 2170 621 
Q 1773 262 1395 105 
Q 1018 -51 378 -141 
z
M 2317 2272 
L 2317 2522 
Q 2317 4147 1472 4147 
Q 1171 4147 1005 3930 
Q 909 3802 845 3546 
Q 781 3290 781 3034 
Q 781 2464 995 2128 
Q 1210 1792 1568 1792 
Q 1824 1792 2070 1917 
Q 2317 2042 2317 2272 
z
" transform="scale(0.015625)"/>
       <path id="STIXGeneral-Regular-29" d="M 186 4224 
L 262 4326 
Q 992 3891 1408 3148 
Q 1824 2406 1824 1581 
Q 1824 -166 243 -1133 
L 186 -1030 
Q 845 -486 1059 54 
Q 1274 595 1274 1562 
Q 1274 2534 1059 3120 
Q 845 3706 186 4224 
z
" transform="scale(0.015625)"/>
      </defs>
      <use xlink:href="#STIXGeneral-Regular-65" transform="translate(0 0.409375)"/>
      <use xlink:href="#STIXGeneral-Regular-78" transform="translate(44.399994 0.409375)"/>
      <use xlink:href="#STIXGeneral-Regular-70" transform="translate(94.399979 0.409375)"/>
      <use xlink:href="#STIXGeneral-Regular-28" transform="translate(144.399963 0.409375)"/>
      <use xlink:href="#STIXGeneral-Regular-2212" transform="translate(177.699951 0.409375)"/>
      <use xlink:href="#STIXGeneral-Italic-74" transform="translate(246.199936 0.409375)"/>
      <use xlink:href="#STIXGeneral-Regular-30" transform="translate(282.378049 35.684375) scale(0.7)"/>
      <use xlink:href="#STIXGeneral-Regular-2e" transform="translate(321.787413 0.409375)"/>
      <use xlink:href="#STIXGeneral-Regular-37" transform="translate(346.787398 0.409375)"/>
      <use xlink:href="#STIXGeneral-Regular-39" transform="translate(396.787383 0.409375)"/>
      <use xlink:href="#STIXGeneral-Regular-29" transform="translate(446.787367 0.409375)"/>
     </g>
    </g>
   </g>
  </g>
 </g>
 <defs>
  <clipPath id="p3d506b9210">
   <rect x="43.058437" y="7.2" width="186.732283" height="139.494405"/>
  </clipPath>
 </defs>
</svg>
