<?xml version="1.0" encoding="utf-8" standalone="no"?>
<!DOCTYPE svg PUBLIC "-//W3C//DTD SVG 1.1//EN"
  "http://www.w3.org/Graphics/SVG/1.1/DTD/svg11.dtd">
<svg xmlns:xlink="http://www.w3.org/1999/xlink" width="314.987491pt" height="177.594405pt" viewBox="0 0 314.987491 177.594405" xmlns="http://www.w3.org/2000/svg" version="1.1">
 <metadata>
  <rdf:RDF xmlns:dc="http://purl.org/dc/elements/1.1/" xmlns:cc="http://creativecommons.org/ns#" xmlns:rdf="http://www.w3.org/1999/02/22-rdf-syntax-ns#">
   <cc:Work>
    <dc:type rdf:resource="http://purl.org/dc/dcmitype/StillImage"/>
    <dc:date>2023-03-14T12:01:22.833029</dc:date>
    <dc:format>image/svg+xml</dc:format>
    <dc:creator>
     <cc:Agent>
      <dc:title>Matplotlib v3.7.0, https://matplotlib.org/</dc:title>
     </cc:Agent>
    </dc:creator>
   </cc:Work>
  </rdf:RDF>
 </metadata>
 <defs>
  <style type="text/css">*{stroke-linejoin: round; stroke-linecap: butt}</style>
 </defs>
 <g id="figure_1">
  <g id="patch_1">
   <path d="M 0 177.594405 
L 314.987491 177.594405 
L 314.987491 0 
L 0 0 
L 0 177.594405 
z
" style="fill: none"/>
  </g>
  <g id="axes_1">
   <g id="patch_2">
    <path d="M 39.908437 146.694405 
L 226.640721 146.694405 
L 226.640721 7.2 
L 39.908437 7.2 
L 39.908437 146.694405 
z
" style="fill: none"/>
   </g>
   <g id="matplotlib.axis_1">
    <g id="xtick_1">
     <g id="line2d_1">
      <defs>
       <path id="m3dbfb8ef89" d="M 0 0 
L 0 -3.5 
" style="stroke: #000000; stroke-width: 0.8"/>
      </defs>
      <g>
       <use xlink:href="#m3dbfb8ef89" x="48.396269" y="146.694405" style="stroke: #000000; stroke-width: 0.8"/>
      </g>
     </g>
     <g id="text_1">
      <!-- 0 -->
      <g transform="translate(46.146269 156.341124) scale(0.09 -0.09)">
       <defs>
        <path id="STIXGeneral-Regular-30" d="M 3046 2112 
Q 3046 1683 2963 1302 
Q 2880 922 2717 602 
Q 2554 282 2266 96 
Q 1978 -90 1600 -90 
Q 1210 -90 915 108 
Q 621 307 461 640 
Q 301 973 227 1350 
Q 154 1728 154 2150 
Q 154 2746 301 3222 
Q 448 3699 790 4012 
Q 1133 4326 1626 4326 
Q 2253 4326 2649 3712 
Q 3046 3098 3046 2112 
z
M 2432 2080 
Q 2432 3091 2217 3625 
Q 2003 4160 1587 4160 
Q 1190 4160 979 3622 
Q 768 3085 768 2106 
Q 768 1120 979 598 
Q 1190 77 1600 77 
Q 2003 77 2217 598 
Q 2432 1120 2432 2080 
z
" transform="scale(0.015625)"/>
       </defs>
       <use xlink:href="#STIXGeneral-Regular-30"/>
      </g>
     </g>
    </g>
    <g id="xtick_2">
     <g id="line2d_2">
      <g>
       <use xlink:href="#m3dbfb8ef89" x="91.498035" y="146.694405" style="stroke: #000000; stroke-width: 0.8"/>
      </g>
     </g>
     <g id="text_2">
      <!-- 10 -->
      <g transform="translate(86.998035 156.341124) scale(0.09 -0.09)">
       <defs>
        <path id="STIXGeneral-Regular-31" d="M 2522 0 
L 755 0 
L 755 96 
Q 1107 115 1235 227 
Q 1363 339 1363 608 
L 1363 3482 
Q 1363 3795 1171 3795 
Q 1082 3795 883 3718 
L 710 3654 
L 710 3744 
L 1856 4326 
L 1914 4307 
L 1914 486 
Q 1914 275 2042 185 
Q 2170 96 2522 96 
L 2522 0 
z
" transform="scale(0.015625)"/>
       </defs>
       <use xlink:href="#STIXGeneral-Regular-31"/>
       <use xlink:href="#STIXGeneral-Regular-30" x="49.999985"/>
      </g>
     </g>
    </g>
    <g id="xtick_3">
     <g id="line2d_3">
      <g>
       <use xlink:href="#m3dbfb8ef89" x="134.599802" y="146.694405" style="stroke: #000000; stroke-width: 0.8"/>
      </g>
     </g>
     <g id="text_3">
      <!-- 20 -->
      <g transform="translate(130.099802 156.341124) scale(0.09 -0.09)">
       <defs>
        <path id="STIXGeneral-Regular-32" d="M 3034 877 
L 2688 0 
L 186 0 
L 186 77 
L 1325 1286 
Q 1773 1754 1965 2144 
Q 2157 2534 2157 2950 
Q 2157 3379 1920 3616 
Q 1683 3853 1267 3853 
Q 922 3853 720 3673 
Q 518 3494 326 3021 
L 192 3053 
Q 301 3648 630 3987 
Q 960 4326 1523 4326 
Q 2054 4326 2380 4006 
Q 2707 3686 2707 3200 
Q 2707 2477 1888 1613 
L 832 486 
L 2330 486 
Q 2541 486 2665 569 
Q 2790 653 2944 915 
L 3034 877 
z
" transform="scale(0.015625)"/>
       </defs>
       <use xlink:href="#STIXGeneral-Regular-32"/>
       <use xlink:href="#STIXGeneral-Regular-30" x="49.999985"/>
      </g>
     </g>
    </g>
    <g id="xtick_4">
     <g id="line2d_4">
      <g>
       <use xlink:href="#m3dbfb8ef89" x="177.701569" y="146.694405" style="stroke: #000000; stroke-width: 0.8"/>
      </g>
     </g>
     <g id="text_4">
      <!-- 30 -->
      <g transform="translate(173.201569 156.341124) scale(0.09 -0.09)">
       <defs>
        <path id="STIXGeneral-Regular-33" d="M 390 3264 
L 288 3290 
Q 435 3770 748 4048 
Q 1062 4326 1542 4326 
Q 1990 4326 2265 4083 
Q 2541 3840 2541 3450 
Q 2541 2925 1946 2566 
Q 2298 2413 2477 2227 
Q 2758 1914 2758 1402 
Q 2758 890 2464 506 
Q 2246 211 1840 60 
Q 1434 -90 979 -90 
Q 262 -90 262 275 
Q 262 378 339 442 
Q 416 506 525 506 
Q 685 506 915 339 
Q 1197 141 1466 141 
Q 1818 141 2058 425 
Q 2298 710 2298 1120 
Q 2298 1856 1632 2048 
Q 1434 2112 979 2112 
L 979 2202 
Q 1338 2323 1517 2432 
Q 2035 2726 2035 3290 
Q 2035 3610 1852 3776 
Q 1670 3942 1344 3942 
Q 768 3942 390 3264 
z
" transform="scale(0.015625)"/>
       </defs>
       <use xlink:href="#STIXGeneral-Regular-33"/>
       <use xlink:href="#STIXGeneral-Regular-30" x="49.999985"/>
      </g>
     </g>
    </g>
    <g id="xtick_5">
     <g id="line2d_5">
      <g>
       <use xlink:href="#m3dbfb8ef89" x="220.803335" y="146.694405" style="stroke: #000000; stroke-width: 0.8"/>
      </g>
     </g>
     <g id="text_5">
      <!-- 40 -->
      <g transform="translate(216.303335 156.341124) scale(0.09 -0.09)">
       <defs>
        <path id="STIXGeneral-Regular-34" d="M 3027 1069 
L 2368 1069 
L 2368 0 
L 1869 0 
L 1869 1069 
L 77 1069 
L 77 1478 
L 2086 4326 
L 2368 4326 
L 2368 1478 
L 3027 1478 
L 3027 1069 
z
M 1869 1478 
L 1869 3674 
L 333 1478 
L 1869 1478 
z
" transform="scale(0.015625)"/>
       </defs>
       <use xlink:href="#STIXGeneral-Regular-34"/>
       <use xlink:href="#STIXGeneral-Regular-30" x="49.999985"/>
      </g>
     </g>
    </g>
    <g id="text_6">
     <!-- distance -->
     <g transform="translate(118.527235 168.441124) scale(0.09 -0.09)">
      <defs>
       <path id="STIXGeneral-Regular-64" d="M 3142 269 
L 2202 -64 
L 2176 -45 
L 2176 365 
Q 1869 -64 1357 -64 
Q 826 -64 499 317 
Q 173 698 173 1312 
Q 173 1990 563 2467 
Q 954 2944 1504 2944 
Q 1850 2944 2176 2669 
L 2176 3667 
Q 2176 3866 2118 3930 
Q 2061 3994 1882 3994 
Q 1792 3994 1741 3987 
L 1741 4090 
Q 2323 4243 2682 4371 
L 2714 4358 
L 2714 730 
Q 2714 506 2768 435 
Q 2822 365 2995 365 
Q 3034 365 3142 371 
L 3142 269 
z
M 2176 653 
L 2176 2125 
Q 2176 2381 1981 2573 
Q 1786 2765 1523 2765 
Q 1158 2765 940 2438 
Q 723 2112 723 1568 
Q 723 979 963 624 
Q 1203 269 1606 269 
Q 1907 269 2080 474 
Q 2176 582 2176 653 
z
" transform="scale(0.015625)"/>
       <path id="STIXGeneral-Regular-69" d="M 1152 4045 
Q 1152 3904 1056 3811 
Q 960 3718 819 3718 
Q 685 3718 592 3811 
Q 499 3904 499 4045 
Q 499 4179 595 4275 
Q 691 4371 826 4371 
Q 966 4371 1059 4275 
Q 1152 4179 1152 4045 
z
M 1619 0 
L 102 0 
L 102 96 
Q 435 115 521 211 
Q 608 307 608 666 
L 608 2118 
Q 608 2342 563 2432 
Q 518 2522 397 2522 
Q 243 2522 128 2490 
L 128 2592 
L 1120 2944 
L 1146 2918 
L 1146 672 
Q 1146 314 1226 218 
Q 1306 122 1619 96 
L 1619 0 
z
" transform="scale(0.015625)"/>
       <path id="STIXGeneral-Regular-73" d="M 998 1926 
L 1664 1523 
Q 1984 1331 2105 1164 
Q 2227 998 2227 736 
Q 2227 416 1961 176 
Q 1696 -64 1331 -64 
Q 1030 -64 864 -6 
Q 691 51 570 51 
Q 461 51 416 -26 
L 333 -26 
L 333 979 
L 435 979 
Q 538 512 730 294 
Q 922 77 1248 77 
Q 1485 77 1632 211 
Q 1779 346 1779 550 
Q 1779 845 1440 1030 
L 1094 1222 
Q 326 1651 326 2150 
Q 326 2522 566 2730 
Q 806 2938 1210 2938 
Q 1491 2938 1638 2867 
Q 1754 2816 1818 2816 
Q 1862 2816 1920 2880 
L 1990 2880 
L 2022 2010 
L 1926 2010 
Q 1818 2445 1654 2621 
Q 1491 2797 1203 2797 
Q 986 2797 854 2688 
Q 723 2579 723 2362 
Q 723 2253 796 2128 
Q 870 2003 998 1926 
z
" transform="scale(0.015625)"/>
       <path id="STIXGeneral-Regular-74" d="M 1702 493 
L 1786 422 
Q 1478 -64 1011 -64 
Q 448 -64 448 749 
L 448 2675 
L 109 2675 
Q 83 2694 83 2720 
Q 83 2771 192 2842 
Q 435 2982 813 3526 
Q 826 3546 874 3606 
Q 922 3667 941 3706 
Q 986 3706 986 3622 
L 986 2880 
L 1632 2880 
L 1632 2675 
L 986 2675 
L 986 845 
Q 986 538 1062 403 
Q 1139 269 1318 269 
Q 1510 269 1702 493 
z
" transform="scale(0.015625)"/>
       <path id="STIXGeneral-Regular-61" d="M 2829 422 
L 2829 243 
Q 2586 -64 2253 -64 
Q 1888 -64 1843 403 
L 1837 403 
Q 1427 -64 909 -64 
Q 608 -64 422 112 
Q 237 288 237 602 
Q 237 1050 685 1350 
Q 992 1555 1837 1869 
L 1837 2214 
Q 1837 2502 1699 2646 
Q 1562 2790 1338 2790 
Q 1146 2790 1018 2697 
Q 890 2605 890 2477 
Q 890 2419 909 2348 
Q 928 2278 928 2208 
Q 928 2112 841 2029 
Q 755 1946 634 1946 
Q 525 1946 441 2029 
Q 358 2112 358 2240 
Q 358 2547 685 2752 
Q 986 2944 1421 2944 
Q 1939 2944 2176 2656 
Q 2291 2522 2323 2384 
Q 2355 2246 2355 1946 
L 2355 723 
Q 2355 301 2554 301 
Q 2682 301 2829 422 
z
M 1837 813 
L 1837 1715 
Q 1248 1510 1018 1293 
Q 800 1094 800 800 
Q 800 557 921 432 
Q 1043 307 1242 307 
Q 1453 307 1613 410 
Q 1747 506 1792 589 
Q 1837 672 1837 813 
z
" transform="scale(0.015625)"/>
       <path id="STIXGeneral-Regular-6e" d="M 3104 0 
L 1773 0 
L 1779 96 
Q 2016 115 2096 233 
Q 2176 352 2176 672 
L 2176 1946 
Q 2176 2592 1709 2592 
Q 1549 2592 1408 2515 
Q 1267 2438 1050 2227 
L 1050 461 
Q 1050 269 1136 192 
Q 1222 115 1466 96 
L 1466 0 
L 115 0 
L 115 96 
Q 358 115 435 214 
Q 512 314 512 602 
L 512 2157 
Q 512 2394 467 2483 
Q 422 2573 288 2573 
Q 160 2573 102 2547 
L 102 2656 
Q 550 2784 979 2944 
L 1030 2925 
L 1030 2426 
L 1037 2426 
Q 1491 2944 1958 2944 
Q 2323 2944 2518 2688 
Q 2714 2432 2714 1958 
L 2714 544 
Q 2714 288 2790 205 
Q 2867 122 3104 96 
L 3104 0 
z
" transform="scale(0.015625)"/>
       <path id="STIXGeneral-Regular-63" d="M 2547 998 
L 2637 941 
Q 2362 403 2112 205 
Q 1786 -64 1376 -64 
Q 845 -64 502 336 
Q 160 736 160 1357 
Q 160 2170 698 2618 
Q 1094 2944 1562 2944 
Q 1965 2944 2256 2749 
Q 2547 2554 2547 2285 
Q 2547 2176 2457 2096 
Q 2368 2016 2246 2016 
Q 2022 2016 1939 2310 
L 1901 2451 
Q 1850 2630 1773 2694 
Q 1696 2758 1523 2758 
Q 1133 2758 893 2451 
Q 653 2144 653 1645 
Q 653 1094 928 745 
Q 1203 397 1645 397 
Q 1920 397 2118 528 
Q 2317 659 2547 998 
z
" transform="scale(0.015625)"/>
       <path id="STIXGeneral-Regular-65" d="M 2611 1050 
L 2714 1005 
Q 2330 -64 1376 -64 
Q 813 -64 486 329 
Q 160 723 160 1389 
Q 160 2074 525 2509 
Q 890 2944 1485 2944 
Q 2061 2944 2374 2502 
Q 2560 2246 2592 1773 
L 621 1773 
Q 646 1370 700 1158 
Q 755 947 915 730 
Q 1184 378 1626 378 
Q 1939 378 2153 531 
Q 2368 685 2611 1050 
z
M 634 1978 
L 1939 1978 
Q 1882 2381 1750 2547 
Q 1619 2714 1312 2714 
Q 1043 2714 864 2525 
Q 685 2336 634 1978 
z
" transform="scale(0.015625)"/>
      </defs>
      <use xlink:href="#STIXGeneral-Regular-64"/>
      <use xlink:href="#STIXGeneral-Regular-69" x="49.999985"/>
      <use xlink:href="#STIXGeneral-Regular-73" x="77.799973"/>
      <use xlink:href="#STIXGeneral-Regular-74" x="116.699966"/>
      <use xlink:href="#STIXGeneral-Regular-61" x="144.499954"/>
      <use xlink:href="#STIXGeneral-Regular-6e" x="188.899948"/>
      <use xlink:href="#STIXGeneral-Regular-63" x="238.899933"/>
      <use xlink:href="#STIXGeneral-Regular-65" x="283.299927"/>
     </g>
    </g>
   </g>
   <g id="matplotlib.axis_2">
    <g id="ytick_1">
     <g id="line2d_6">
      <defs>
       <path id="m1d51ea0ed9" d="M 0 0 
L 3.5 0 
" style="stroke: #000000; stroke-width: 0.8"/>
      </defs>
      <g>
       <use xlink:href="#m1d51ea0ed9" x="39.908437" y="121.604117" style="stroke: #000000; stroke-width: 0.8"/>
      </g>
     </g>
     <g id="text_7">
      <!-- $\mathdefault{10^{-9}}$ -->
      <g transform="translate(19.308438 124.677476) scale(0.09 -0.09)">
       <defs>
        <path id="STIXGeneral-Regular-2212" d="M 3974 1408 
L 410 1408 
L 410 1830 
L 3974 1830 
L 3974 1408 
z
" transform="scale(0.015625)"/>
        <path id="STIXGeneral-Regular-39" d="M 378 -141 
L 358 -13 
Q 1094 115 1603 608 
Q 2112 1101 2304 1882 
Q 1933 1517 1344 1517 
Q 826 1517 509 1875 
Q 192 2234 192 2816 
Q 192 3462 573 3894 
Q 954 4326 1523 4326 
Q 2131 4326 2528 3840 
Q 2938 3328 2938 2522 
Q 2938 1958 2742 1462 
Q 2547 966 2170 621 
Q 1773 262 1395 105 
Q 1018 -51 378 -141 
z
M 2317 2272 
L 2317 2522 
Q 2317 4147 1472 4147 
Q 1171 4147 1005 3930 
Q 909 3802 845 3546 
Q 781 3290 781 3034 
Q 781 2464 995 2128 
Q 1210 1792 1568 1792 
Q 1824 1792 2070 1917 
Q 2317 2042 2317 2272 
z
" transform="scale(0.015625)"/>
       </defs>
       <use xlink:href="#STIXGeneral-Regular-31" transform="translate(0 0.684375)"/>
       <use xlink:href="#STIXGeneral-Regular-30" transform="translate(49.999985 0.684375)"/>
       <use xlink:href="#STIXGeneral-Regular-2212" transform="translate(101.574969 36.684375) scale(0.7)"/>
       <use xlink:href="#STIXGeneral-Regular-39" transform="translate(149.524959 36.684375) scale(0.7)"/>
      </g>
     </g>
    </g>
    <g id="ytick_2">
     <g id="line2d_7">
      <g>
       <use xlink:href="#m1d51ea0ed9" x="39.908437" y="92.429055" style="stroke: #000000; stroke-width: 0.8"/>
      </g>
     </g>
     <g id="text_8">
      <!-- $\mathdefault{10^{-7}}$ -->
      <g transform="translate(19.308438 95.502414) scale(0.09 -0.09)">
       <defs>
        <path id="STIXGeneral-Regular-37" d="M 2874 4134 
L 1517 -51 
L 1101 -51 
L 2368 3763 
L 992 3763 
Q 717 3763 582 3667 
Q 448 3571 243 3238 
L 128 3296 
L 512 4237 
L 2874 4237 
L 2874 4134 
z
" transform="scale(0.015625)"/>
       </defs>
       <use xlink:href="#STIXGeneral-Regular-31" transform="translate(0 0.657813)"/>
       <use xlink:href="#STIXGeneral-Regular-30" transform="translate(49.999985 0.657813)"/>
       <use xlink:href="#STIXGeneral-Regular-2212" transform="translate(101.574969 36.657813) scale(0.7)"/>
       <use xlink:href="#STIXGeneral-Regular-37" transform="translate(149.524959 36.657813) scale(0.7)"/>
      </g>
     </g>
    </g>
    <g id="ytick_3">
     <g id="line2d_8">
      <g>
       <use xlink:href="#m1d51ea0ed9" x="39.908437" y="63.253994" style="stroke: #000000; stroke-width: 0.8"/>
      </g>
     </g>
     <g id="text_9">
      <!-- $\mathdefault{10^{-5}}$ -->
      <g transform="translate(19.308438 66.327353) scale(0.09 -0.09)">
       <defs>
        <path id="STIXGeneral-Regular-35" d="M 2803 4358 
L 2573 3814 
Q 2534 3731 2400 3731 
L 1158 3731 
L 902 3187 
Q 1606 3053 1920 2896 
Q 2234 2739 2502 2368 
Q 2726 2061 2726 1555 
Q 2726 1094 2576 780 
Q 2426 467 2099 224 
Q 1664 -90 1011 -90 
Q 646 -90 422 19 
Q 198 128 198 307 
Q 198 550 486 550 
Q 717 550 960 352 
Q 1210 147 1414 147 
Q 1747 147 2012 480 
Q 2278 813 2278 1229 
Q 2278 1843 1850 2189 
Q 1293 2637 486 2637 
Q 410 2637 410 2688 
L 416 2720 
L 1114 4237 
L 2438 4237 
Q 2547 4237 2608 4269 
Q 2669 4301 2746 4403 
L 2803 4358 
z
" transform="scale(0.015625)"/>
       </defs>
       <use xlink:href="#STIXGeneral-Regular-31" transform="translate(0 0.842187)"/>
       <use xlink:href="#STIXGeneral-Regular-30" transform="translate(49.999985 0.842187)"/>
       <use xlink:href="#STIXGeneral-Regular-2212" transform="translate(101.574969 36.842187) scale(0.7)"/>
       <use xlink:href="#STIXGeneral-Regular-35" transform="translate(149.524959 36.842187) scale(0.7)"/>
      </g>
     </g>
    </g>
    <g id="ytick_4">
     <g id="line2d_9">
      <g>
       <use xlink:href="#m1d51ea0ed9" x="39.908437" y="34.078932" style="stroke: #000000; stroke-width: 0.8"/>
      </g>
     </g>
     <g id="text_10">
      <!-- $\mathdefault{10^{-3}}$ -->
      <g transform="translate(19.308438 37.152291) scale(0.09 -0.09)">
       <use xlink:href="#STIXGeneral-Regular-31" transform="translate(0 0.684375)"/>
       <use xlink:href="#STIXGeneral-Regular-30" transform="translate(49.999985 0.684375)"/>
       <use xlink:href="#STIXGeneral-Regular-2212" transform="translate(101.574969 36.684375) scale(0.7)"/>
       <use xlink:href="#STIXGeneral-Regular-33" transform="translate(149.524959 36.684375) scale(0.7)"/>
      </g>
     </g>
    </g>
    <g id="text_11">
     <!-- Two body probability -->
     <g transform="translate(13.346719 116.19564) rotate(-90) scale(0.09 -0.09)">
      <defs>
       <path id="STIXGeneral-Regular-54" d="M 3795 3149 
L 3642 3149 
Q 3539 3674 3353 3821 
Q 3168 3968 2656 3968 
L 2278 3968 
L 2278 710 
Q 2278 346 2387 243 
Q 2496 141 2893 122 
L 2893 0 
L 1024 0 
L 1024 122 
Q 1427 147 1526 256 
Q 1626 365 1626 787 
L 1626 3968 
L 1242 3968 
Q 723 3968 540 3817 
Q 358 3667 262 3149 
L 109 3149 
L 154 4237 
L 3750 4237 
L 3795 3149 
z
" transform="scale(0.015625)"/>
       <path id="STIXGeneral-Regular-77" d="M 4442 2880 
L 4442 2784 
Q 4346 2752 4301 2691 
Q 4256 2630 4179 2438 
L 3296 224 
Q 3168 -90 3117 -90 
Q 3085 -90 3062 -48 
Q 3040 -6 2963 186 
L 2381 1696 
L 1664 160 
Q 1549 -90 1504 -90 
Q 1446 -90 1338 192 
L 474 2381 
Q 378 2630 314 2700 
Q 250 2771 134 2784 
L 134 2880 
L 1286 2880 
L 1286 2784 
Q 1120 2765 1056 2720 
Q 992 2675 992 2573 
Q 992 2477 1030 2381 
L 1664 710 
L 2246 1984 
L 2118 2342 
Q 2029 2598 1942 2681 
Q 1856 2765 1677 2784 
L 1677 2880 
L 2976 2880 
L 2976 2784 
Q 2752 2752 2678 2707 
Q 2605 2662 2605 2560 
Q 2605 2458 2714 2176 
L 3251 742 
L 3827 2163 
Q 3936 2432 3936 2592 
Q 3936 2669 3875 2710 
Q 3814 2752 3654 2784 
L 3654 2880 
L 4442 2880 
z
" transform="scale(0.015625)"/>
       <path id="STIXGeneral-Regular-6f" d="M 3008 1478 
Q 3008 806 2608 371 
Q 2208 -64 1568 -64 
Q 979 -64 582 368 
Q 186 800 186 1459 
Q 186 2125 582 2534 
Q 979 2944 1626 2944 
Q 2221 2944 2614 2537 
Q 3008 2131 3008 1478 
z
M 2432 1306 
Q 2432 2035 2112 2445 
Q 1856 2765 1504 2765 
Q 1171 2765 966 2493 
Q 762 2221 762 1747 
Q 762 928 1101 435 
Q 1318 115 1677 115 
Q 2029 115 2230 432 
Q 2432 749 2432 1306 
z
" transform="scale(0.015625)"/>
       <path id="STIXGeneral-Regular-20" transform="scale(0.015625)"/>
       <path id="STIXGeneral-Regular-62" d="M 979 4358 
L 979 2406 
Q 1082 2650 1315 2797 
Q 1549 2944 1843 2944 
Q 2349 2944 2672 2541 
Q 2995 2138 2995 1536 
Q 2995 832 2566 384 
Q 2138 -64 1498 -64 
Q 1107 -64 774 67 
Q 442 198 442 358 
L 442 3622 
Q 442 3859 384 3926 
Q 326 3994 128 3994 
Q 83 3994 19 3981 
L 19 4090 
L 211 4147 
Q 864 4346 947 4371 
L 979 4358 
z
M 979 2035 
L 979 474 
Q 979 326 1161 233 
Q 1344 141 1600 141 
Q 1978 141 2195 416 
Q 2432 710 2432 1261 
Q 2432 1888 2182 2240 
Q 1971 2541 1613 2541 
Q 1357 2541 1168 2390 
Q 979 2240 979 2035 
z
" transform="scale(0.015625)"/>
       <path id="STIXGeneral-Regular-79" d="M 3040 2880 
L 3040 2784 
Q 2925 2771 2854 2700 
Q 2784 2630 2720 2458 
L 1760 -160 
Q 1510 -838 1257 -1116 
Q 1005 -1395 640 -1395 
Q 435 -1395 313 -1289 
Q 192 -1184 192 -1024 
Q 192 -902 272 -816 
Q 352 -730 467 -730 
Q 653 -730 800 -813 
Q 883 -858 966 -858 
Q 1101 -858 1286 -576 
Q 1376 -448 1459 -211 
Q 1542 26 1542 115 
Q 1542 198 1274 762 
L 429 2566 
Q 346 2752 90 2790 
L 90 2880 
L 1402 2880 
L 1402 2784 
Q 1197 2778 1117 2739 
Q 1037 2701 1037 2611 
Q 1037 2541 1120 2349 
L 1837 749 
L 2458 2515 
Q 2483 2573 2483 2630 
Q 2483 2784 2189 2784 
L 2189 2880 
L 3040 2880 
z
" transform="scale(0.015625)"/>
       <path id="STIXGeneral-Regular-70" d="M 1018 2931 
L 1018 2438 
Q 1421 2944 1939 2944 
Q 2406 2944 2707 2560 
Q 3008 2176 3008 1581 
Q 3008 883 2621 409 
Q 2234 -64 1664 -64 
Q 1466 -64 1328 -6 
Q 1190 51 1018 211 
L 1018 -794 
Q 1018 -1094 1120 -1180 
Q 1222 -1267 1581 -1274 
L 1581 -1389 
L 32 -1389 
L 32 -1280 
Q 314 -1254 397 -1171 
Q 480 -1088 480 -838 
L 480 2157 
Q 480 2381 429 2451 
Q 378 2522 218 2522 
Q 115 2522 58 2515 
L 58 2618 
Q 506 2752 979 2944 
L 1018 2931 
z
M 1018 2138 
L 1018 563 
Q 1018 422 1238 281 
Q 1459 141 1683 141 
Q 2029 141 2243 467 
Q 2458 794 2458 1325 
Q 2458 1888 2243 2224 
Q 2029 2560 1670 2560 
Q 1446 2560 1232 2419 
Q 1018 2278 1018 2138 
z
" transform="scale(0.015625)"/>
       <path id="STIXGeneral-Regular-72" d="M 1024 2931 
L 1024 2342 
Q 1267 2688 1430 2816 
Q 1594 2944 1792 2944 
Q 1958 2944 2051 2854 
Q 2144 2765 2144 2605 
Q 2144 2470 2077 2393 
Q 2010 2317 1894 2317 
Q 1773 2317 1638 2445 
Q 1536 2541 1472 2541 
Q 1338 2541 1181 2355 
Q 1024 2170 1024 2016 
L 1024 576 
Q 1024 301 1133 205 
Q 1242 109 1568 96 
L 1568 0 
L 32 0 
L 32 96 
Q 339 154 412 224 
Q 486 294 486 538 
L 486 2138 
Q 486 2349 438 2435 
Q 390 2522 269 2522 
Q 166 2522 45 2496 
L 45 2598 
Q 448 2726 992 2944 
L 1024 2931 
z
" transform="scale(0.015625)"/>
       <path id="STIXGeneral-Regular-6c" d="M 1645 0 
L 134 0 
L 134 96 
Q 435 122 531 221 
Q 627 320 627 589 
L 627 3590 
Q 627 3821 569 3910 
Q 512 4000 358 4000 
Q 224 4000 122 3987 
L 122 4090 
Q 730 4237 1133 4371 
L 1165 4346 
L 1165 557 
Q 1165 288 1254 201 
Q 1344 115 1645 96 
L 1645 0 
z
" transform="scale(0.015625)"/>
      </defs>
      <use xlink:href="#STIXGeneral-Regular-54"/>
      <use xlink:href="#STIXGeneral-Regular-77" x="61.099991"/>
      <use xlink:href="#STIXGeneral-Regular-6f" x="133.299973"/>
      <use xlink:href="#STIXGeneral-Regular-20" x="183.299957"/>
      <use xlink:href="#STIXGeneral-Regular-62" x="208.299942"/>
      <use xlink:href="#STIXGeneral-Regular-6f" x="258.299927"/>
      <use xlink:href="#STIXGeneral-Regular-64" x="308.299911"/>
      <use xlink:href="#STIXGeneral-Regular-79" x="358.299896"/>
      <use xlink:href="#STIXGeneral-Regular-20" x="408.299881"/>
      <use xlink:href="#STIXGeneral-Regular-70" x="433.299866"/>
      <use xlink:href="#STIXGeneral-Regular-72" x="483.29985"/>
      <use xlink:href="#STIXGeneral-Regular-6f" x="516.599838"/>
      <use xlink:href="#STIXGeneral-Regular-62" x="566.599823"/>
      <use xlink:href="#STIXGeneral-Regular-61" x="616.599808"/>
      <use xlink:href="#STIXGeneral-Regular-62" x="660.999802"/>
      <use xlink:href="#STIXGeneral-Regular-69" x="710.999786"/>
      <use xlink:href="#STIXGeneral-Regular-6c" x="738.799774"/>
      <use xlink:href="#STIXGeneral-Regular-69" x="766.599762"/>
      <use xlink:href="#STIXGeneral-Regular-74" x="794.39975"/>
      <use xlink:href="#STIXGeneral-Regular-79" x="822.199738"/>
     </g>
    </g>
   </g>
   <g id="line2d_10">
    <path d="M 48.396269 24.181435 
L 49.30029 13.540655 
L 50.204312 16.846807 
L 52.012355 24.747122 
L 52.916377 25.298683 
L 53.820398 28.390529 
L 54.72442 29.995728 
L 55.628441 32.162741 
L 56.532463 33.960595 
L 57.436484 34.555469 
L 58.340506 36.177292 
L 59.244528 37.454776 
L 60.148549 38.08449 
L 61.052571 39.67459 
L 61.956592 41.502364 
L 62.860614 42.393196 
L 63.764636 44.264088 
L 64.668657 43.773906 
L 65.572679 45.638278 
L 67.380722 47.062779 
L 68.284744 48.56298 
L 70.092787 50.142555 
L 70.996808 50.69236 
L 71.90083 52.408371 
L 72.804851 52.137732 
L 73.708873 52.137246 
L 74.612895 54.240339 
L 75.516916 54.061889 
L 76.420938 52.945309 
L 77.324959 54.592031 
L 78.228981 57.671829 
L 79.133003 57.751129 
L 80.037024 57.239966 
L 80.941046 59.130422 
L 81.845067 58.355569 
L 82.749089 59.475422 
L 83.653111 62.150619 
L 84.557132 58.413709 
L 85.461154 60.993698 
L 86.365175 61.742564 
L 87.269197 65.175312 
L 89.07724 63.886724 
L 89.981262 68.080172 
L 90.885283 68.330389 
L 91.789305 69.00028 
L 93.597348 72.280164 
L 94.50137 74.50817 
L 95.405391 74.042737 
L 96.309413 75.784325 
L 97.213434 77.960266 
L 98.117456 79.69879 
L 99.021478 79.767902 
L 99.925499 80.728708 
L 100.829521 78.416306 
L 101.733542 81.985443 
L 102.637564 79.595993 
L 103.541586 84.455082 
L 104.445607 84.51191 
L 105.349629 83.361661 
L 106.25365 84.249442 
L 107.157672 89.351711 
L 108.061693 86.322694 
L 108.965715 88.788579 
L 109.869737 90.008548 
L 110.773758 89.772333 
L 111.67778 92.60186 
L 112.581801 89.41121 
L 113.485823 95.154069 
L 114.389845 94.14754 
L 116.197888 95.053224 
L 117.101909 99.091269 
L 118.005931 93.822765 
L 119.813974 98.305824 
L 120.717996 98.713093 
L 121.622017 96.427607 
L 122.526039 98.368836 
L 123.43006 105.324237 
L 124.334082 102.124923 
L 125.238104 105.277478 
L 126.142125 101.388361 
L 127.046147 106.2458 
L 127.950168 110.1932 
L 128.85419 112.335465 
L 129.758212 107.123933 
L 130.662233 112.334785 
L 131.566255 107.81264 
L 132.470276 113.791438 
L 133.374298 117.982598 
L 134.27832 112.617907 
L 135.182341 132.851845 
L 136.086363 110.511193 
L 136.090617 178.594405 
M 137.8905 178.594405 
L 137.894406 116.113062 
L 138.798427 114.680541 
L 139.702449 121.215942 
L 140.606471 124.873595 
L 141.510492 113.576316 
L 142.414514 110.503133 
L 143.318535 117.7755 
L 144.222557 129.740368 
L 145.126579 117.081809 
L 145.130424 178.594405 
M 146.931584 178.594405 
L 146.934622 130.052665 
L 147.838643 109.218362 
L 148.742665 124.509677 
L 149.646687 116.499337 
L 150.550708 119.72794 
L 151.45473 128.023359 
L 152.358751 135.174095 
L 153.262773 117.65806 
L 154.166794 121.462896 
L 155.070816 126.703297 
L 155.974838 124.213659 
L 155.978239 178.594405 
M 165.91574 178.594405 
L 165.919075 125.272811 
L 165.92241 178.594405 
M 173.147959 178.594405 
L 173.151248 126.024165 
L 173.151248 126.024165 
" clip-path="url(#p95c28c9555)" style="fill: none; stroke: #440154; stroke-width: 1.5; stroke-linecap: square"/>
   </g>
   <g id="line2d_11">
    <path d="M 48.396269 15.866199 
L 50.077027 15.508356 
L 51.757786 20.960125 
L 53.438544 23.591948 
L 55.119303 26.580379 
L 56.800062 30.720973 
L 58.48082 31.858788 
L 60.161579 33.1746 
L 61.842338 35.945097 
L 63.523096 37.030885 
L 65.203855 38.532976 
L 66.884613 40.70946 
L 68.565372 42.70567 
L 70.246131 44.393001 
L 71.926889 45.943579 
L 73.607648 47.666117 
L 75.288407 48.316001 
L 76.969165 50.216602 
L 78.649924 51.009658 
L 80.330682 53.344535 
L 82.011441 54.730632 
L 83.6922 53.847133 
L 85.372958 55.554207 
L 87.053717 57.314793 
L 88.734476 58.690155 
L 90.415234 59.774207 
L 92.095993 61.009763 
L 93.776751 62.39972 
L 95.45751 62.929011 
L 97.138269 64.943798 
L 98.819027 64.364434 
L 100.499786 66.26521 
L 102.180545 69.363453 
L 103.861303 69.432033 
L 105.542062 71.236042 
L 107.222821 71.873149 
L 108.903579 73.339686 
L 110.584338 73.71039 
L 112.265096 75.459418 
L 113.945855 76.71175 
L 115.626614 74.224084 
L 117.307372 76.792996 
L 118.988131 78.380936 
L 120.66889 80.528936 
L 122.349648 82.159757 
L 124.030407 83.740226 
L 125.711165 83.929538 
L 127.391924 84.925881 
L 129.072683 86.854454 
L 130.753441 85.690468 
L 132.4342 88.796308 
L 134.114959 91.413512 
L 135.795717 91.953348 
L 137.476476 90.451061 
L 139.157234 95.176136 
L 140.837993 93.390126 
L 142.518752 98.491945 
L 144.19951 99.359087 
L 145.880269 95.577234 
L 147.561028 98.193024 
L 149.241786 101.333748 
L 150.922545 98.973484 
L 152.603303 103.722717 
L 154.284062 108.330121 
L 155.964821 110.737617 
L 157.645579 112.291386 
L 159.326338 107.660889 
L 161.007097 105.865514 
L 162.687855 108.115108 
L 164.368614 109.057172 
L 166.049372 110.23907 
L 167.730131 110.723672 
L 169.41089 123.747119 
L 171.091648 110.869458 
L 172.772407 117.927858 
L 174.453166 126.880222 
L 176.133924 122.60162 
L 177.814683 119.726436 
L 179.495441 116.003616 
L 181.1762 121.114003 
L 182.856959 126.227207 
L 184.537717 116.966393 
L 186.218476 114.951156 
L 187.899235 118.230493 
L 189.579993 116.339955 
L 189.587229 178.594405 
M 192.934942 178.594405 
L 192.94151 122.100609 
L 194.622269 119.909039 
L 196.303028 123.707493 
L 197.983786 130.832728 
L 197.989343 178.594405 
M 208.062365 178.594405 
L 208.068338 127.241686 
L 208.074311 178.594405 
M 218.147004 178.594405 
L 218.15289 127.99203 
" clip-path="url(#p95c28c9555)" style="fill: none; stroke: #414487; stroke-width: 1.5; stroke-linecap: square"/>
   </g>
   <g id="line2d_12">
    <path d="M 48.396269 21.574413 
L 49.427347 16.545569 
L 51.489505 21.684163 
L 52.520583 25.697039 
L 53.551662 29.236829 
L 54.582741 30.198591 
L 55.613819 31.358579 
L 56.644898 33.782825 
L 57.675977 35.320538 
L 58.707056 35.688296 
L 59.738134 37.985346 
L 60.769213 38.294223 
L 61.800292 39.387142 
L 62.83137 40.919069 
L 63.862449 43.203303 
L 64.893528 43.952529 
L 65.924607 45.10055 
L 66.955685 45.674875 
L 67.986764 47.828713 
L 70.048921 48.396658 
L 71.08 49.033508 
L 72.111079 50.439738 
L 73.142157 51.018305 
L 74.173236 52.573384 
L 75.204315 52.616874 
L 77.266472 54.922713 
L 78.297551 55.077593 
L 79.32863 55.914871 
L 80.359708 56.235717 
L 83.452945 59.847903 
L 84.484023 59.979883 
L 85.515102 60.827339 
L 86.546181 60.980557 
L 87.577259 62.588154 
L 88.608338 63.592579 
L 89.639417 64.062437 
L 90.670495 64.219275 
L 91.701574 66.304427 
L 92.732653 64.466036 
L 93.763732 68.055852 
L 94.79481 68.376589 
L 95.825889 68.865738 
L 97.888046 72.297682 
L 98.919125 71.714117 
L 100.981282 73.665787 
L 102.012361 75.578847 
L 103.04344 75.780718 
L 104.074519 76.64862 
L 105.105597 75.888766 
L 106.136676 77.553554 
L 107.167755 78.392164 
L 109.229912 80.919665 
L 110.260991 80.195915 
L 111.29207 80.443704 
L 112.323148 80.056373 
L 113.354227 81.372876 
L 115.416384 81.679333 
L 116.447463 84.289101 
L 117.478542 84.254347 
L 118.50962 85.082327 
L 119.540699 86.848103 
L 120.571778 86.382436 
L 122.633935 88.375986 
L 123.665014 91.406871 
L 124.696093 90.153523 
L 125.727171 92.880064 
L 126.75825 92.60761 
L 127.789329 92.548204 
L 128.820407 96.173117 
L 129.851486 92.125408 
L 130.882565 93.429307 
L 131.913644 97.664434 
L 132.944722 94.917612 
L 133.975801 94.963571 
L 135.00688 96.07993 
L 136.037958 98.278143 
L 137.069037 99.567486 
L 138.100116 102.837341 
L 139.131195 99.640799 
L 140.162273 102.129778 
L 141.193352 101.971582 
L 142.224431 105.401622 
L 143.255509 102.4619 
L 144.286588 102.793621 
L 145.317667 102.765994 
L 146.348745 107.824262 
L 147.379824 106.913639 
L 148.410903 109.128069 
L 149.441982 116.468304 
L 150.47306 110.243618 
L 151.504139 118.792073 
L 152.535218 113.197505 
L 153.566296 113.708144 
L 154.597375 112.351961 
L 155.628454 108.812924 
L 156.659533 114.079683 
L 157.690611 116.791967 
L 158.72169 114.09666 
L 159.752769 115.379334 
L 160.783847 114.164792 
L 161.814926 118.634209 
L 162.846005 114.359141 
L 163.877083 115.600937 
L 164.908162 117.575585 
L 166.97032 125.467349 
L 168.001398 113.865706 
L 169.032477 126.797414 
L 170.063556 123.957306 
L 171.094634 121.982428 
L 172.125713 119.762804 
L 173.156792 133.001203 
L 174.18787 112.987679 
L 175.218949 130.645264 
L 176.250028 128.900271 
L 176.253574 178.594405 
M 178.308474 178.594405 
L 178.312185 126.579852 
L 179.343264 137.981801 
L 179.346164 178.594405 
M 184.495302 178.594405 
L 184.498658 131.578473 
L 184.498658 131.578473 
" clip-path="url(#p95c28c9555)" style="fill: none; stroke: #2a788e; stroke-width: 1.5; stroke-linecap: square"/>
   </g>
   <g id="line2d_13">
    <path d="M 48.396269 27.020366 
L 49.60558 25.764239 
L 50.814891 27.837595 
L 52.024202 33.373221 
L 53.233514 35.104434 
L 54.442825 37.719657 
L 55.652136 38.42706 
L 56.861447 40.309965 
L 58.070759 40.659898 
L 59.28007 42.379107 
L 62.908004 45.721685 
L 64.117315 46.485134 
L 65.326626 47.04432 
L 66.535937 48.075195 
L 67.745249 48.459122 
L 68.95456 49.449644 
L 70.163871 49.913474 
L 72.582494 51.540374 
L 73.791805 52.009955 
L 75.001116 52.644464 
L 76.210427 53.553819 
L 78.62905 55.111274 
L 79.838361 55.235463 
L 81.047672 56.235122 
L 83.466295 57.667709 
L 84.675606 58.054771 
L 85.884917 58.588051 
L 87.094228 59.322423 
L 88.30354 59.631892 
L 90.722162 60.921619 
L 91.931473 61.356757 
L 93.140785 61.641807 
L 94.350096 62.731308 
L 96.768718 63.10999 
L 97.97803 64.470544 
L 99.187341 64.988564 
L 100.396652 65.341638 
L 101.605963 65.814654 
L 102.815275 66.091148 
L 106.443208 67.8439 
L 107.65252 68.252981 
L 108.861831 69.003327 
L 110.071142 69.159011 
L 112.489765 70.482787 
L 113.699076 70.637104 
L 114.908387 71.202221 
L 116.117698 71.50162 
L 117.32701 72.928502 
L 119.745632 73.563568 
L 120.954943 74.169353 
L 122.164255 75.484014 
L 123.373566 76.301557 
L 125.792188 76.889155 
L 127.0015 77.448707 
L 128.210811 77.608962 
L 130.629433 78.424961 
L 131.838745 79.312563 
L 134.257367 79.714745 
L 135.466678 80.89679 
L 137.885301 82.119851 
L 139.094612 82.265296 
L 140.303923 82.599972 
L 141.513235 83.079386 
L 142.722546 84.503409 
L 145.141168 84.741861 
L 146.35048 85.478377 
L 147.559791 85.787901 
L 148.769102 86.671476 
L 151.187725 87.587556 
L 152.397036 88.369626 
L 153.606347 89.794916 
L 154.815658 89.935236 
L 157.234281 92.111262 
L 158.443592 93.400393 
L 159.652903 93.514375 
L 160.862215 93.015171 
L 162.071526 93.049489 
L 163.280837 95.66909 
L 164.490148 95.335945 
L 165.69946 94.494631 
L 166.908771 97.904445 
L 168.118082 98.935633 
L 169.327393 99.528044 
L 171.746016 102.181519 
L 172.955327 105.273149 
L 174.164638 104.116891 
L 175.373949 109.631918 
L 176.583261 108.310578 
L 177.792572 108.864771 
L 179.001883 118.7914 
L 180.211194 121.703466 
L 181.420506 122.138137 
L 182.629817 118.863795 
L 183.839128 131.519916 
L 183.843069 178.594405 
M 201.975143 178.594405 
L 201.978797 134.950836 
L 201.982451 178.594405 
M 215.277651 178.594405 
L 215.281221 135.965589 
L 215.281221 135.965589 
" clip-path="url(#p95c28c9555)" style="fill: none; stroke: #22a884; stroke-width: 1.5; stroke-linecap: square"/>
   </g>
   <g id="line2d_14">
    <path d="M 48.396269 52.8909 
L 49.848147 46.016502 
L 51.300025 45.703441 
L 52.751903 46.31207 
L 54.203781 46.610894 
L 55.655659 47.06791 
L 57.107538 47.224237 
L 58.559416 48.10635 
L 60.011294 48.34541 
L 61.463172 49.580449 
L 62.91505 49.518775 
L 64.366929 49.766332 
L 65.818807 50.647735 
L 67.270685 50.771728 
L 68.722563 51.434876 
L 70.174441 52.258315 
L 71.626319 52.46112 
L 73.078198 52.952095 
L 74.530076 53.616804 
L 75.981954 53.940509 
L 77.433832 54.235808 
L 78.88571 54.768556 
L 80.337589 54.852637 
L 81.789467 55.428345 
L 83.241345 55.810605 
L 84.693223 56.137823 
L 86.145101 56.712241 
L 87.596979 56.896306 
L 89.048858 57.091129 
L 90.500736 57.688627 
L 91.952614 58.148092 
L 93.404492 58.367912 
L 94.85637 58.64955 
L 96.308248 59.111293 
L 97.760127 59.3975 
L 99.212005 59.515134 
L 100.663883 60.025075 
L 102.115761 60.085987 
L 103.567639 60.55582 
L 105.019518 60.781782 
L 106.471396 61.305421 
L 107.923274 61.61692 
L 109.375152 61.986069 
L 110.82703 62.386303 
L 112.278908 63.034339 
L 113.730787 63.008765 
L 115.182665 63.460129 
L 116.634543 63.956348 
L 118.086421 64.212443 
L 119.538299 64.732752 
L 120.990178 65.239477 
L 122.442056 65.151461 
L 123.893934 65.504994 
L 125.345812 65.909953 
L 126.79769 65.981092 
L 128.249568 66.616389 
L 129.701447 66.951841 
L 131.153325 67.801168 
L 132.605203 68.711333 
L 134.057081 68.911804 
L 135.508959 69.814617 
L 136.960837 70.040686 
L 138.412716 70.247798 
L 139.864594 70.620496 
L 141.316472 70.820691 
L 142.76835 71.553043 
L 144.220228 71.983699 
L 145.672107 72.428135 
L 147.123985 72.640273 
L 148.575863 73.06988 
L 150.027741 74.080004 
L 151.479619 74.326519 
L 152.931497 74.492441 
L 154.383376 75.006278 
L 155.835254 74.902308 
L 157.287132 75.402536 
L 158.73901 76.434355 
L 160.190888 76.278707 
L 161.642767 76.649745 
L 163.094645 77.340508 
L 164.546523 77.334101 
L 165.998401 77.9825 
L 167.450279 79.379329 
L 168.902157 79.969377 
L 170.354036 80.272795 
L 171.805914 80.569519 
L 173.257792 81.248202 
L 174.70967 82.489854 
L 176.161548 82.590215 
L 177.613426 83.431976 
L 179.065305 83.905168 
L 180.517183 84.637561 
L 181.969061 85.54897 
L 183.420939 85.595504 
L 184.872817 85.895936 
L 186.324696 86.496833 
L 187.776574 88.149706 
L 189.228452 88.197399 
L 190.68033 89.863228 
L 192.132208 89.691209 
L 193.584086 91.33401 
L 195.035965 91.663448 
L 196.487843 94.675009 
L 197.939721 96.874649 
L 199.391599 95.09721 
L 200.843477 97.617158 
L 202.295356 100.331732 
L 203.747234 101.070743 
L 205.199112 103.725237 
L 206.65099 104.591646 
L 208.102868 113.57843 
L 209.554746 118.306284 
L 211.006625 121.16325 
L 212.458503 131.4672 
L 213.910381 140.353751 
" clip-path="url(#p95c28c9555)" style="fill: none; stroke: #7ad151; stroke-width: 1.5; stroke-linecap: square"/>
   </g>
   <g id="patch_3">
    <path d="M 39.908437 146.694405 
L 39.908437 7.2 
" style="fill: none; stroke: #000000; stroke-width: 0.8; stroke-linejoin: miter; stroke-linecap: square"/>
   </g>
   <g id="patch_4">
    <path d="M 226.640721 146.694405 
L 226.640721 7.2 
" style="fill: none; stroke: #000000; stroke-width: 0.8; stroke-linejoin: miter; stroke-linecap: square"/>
   </g>
   <g id="patch_5">
    <path d="M 39.908437 146.694405 
L 226.640721 146.694405 
" style="fill: none; stroke: #000000; stroke-width: 0.8; stroke-linejoin: miter; stroke-linecap: square"/>
   </g>
   <g id="patch_6">
    <path d="M 39.908437 7.2 
L 226.640721 7.2 
" style="fill: none; stroke: #000000; stroke-width: 0.8; stroke-linejoin: miter; stroke-linecap: square"/>
   </g>
   <g id="legend_1">
    <g id="patch_7">
     <path d="M 242.277335 78.166406 
L 305.987491 78.166406 
Q 307.787491 78.166406 307.787491 76.366406 
L 307.787491 13.5 
Q 307.787491 11.7 305.987491 11.7 
L 242.277335 11.7 
Q 240.477335 11.7 240.477335 13.5 
L 240.477335 76.366406 
Q 240.477335 78.166406 242.277335 78.166406 
z
" style="fill: #ffffff; opacity: 0.8; stroke: #cccccc; stroke-linejoin: miter"/>
    </g>
    <g id="line2d_15">
     <path d="M 244.077335 18.45 
L 253.077335 18.45 
L 262.077335 18.45 
" style="fill: none; stroke: #440154; stroke-width: 1.5; stroke-linecap: square"/>
    </g>
    <g id="text_12">
     <!-- Eb = -9.0 -->
     <g transform="translate(269.277335 21.6) scale(0.09 -0.09)">
      <defs>
       <path id="STIXGeneral-Regular-45" d="M 3821 1082 
L 3526 0 
L 77 0 
L 77 122 
Q 442 147 538 252 
Q 634 358 634 730 
L 634 3520 
Q 634 3878 534 3987 
Q 435 4096 77 4115 
L 77 4237 
L 3469 4237 
L 3494 3322 
L 3334 3322 
Q 3264 3750 3085 3872 
Q 2906 3994 2349 3994 
L 1510 3994 
Q 1370 3994 1328 3952 
Q 1286 3910 1286 3763 
L 1286 2355 
L 2253 2355 
Q 2656 2355 2787 2470 
Q 2918 2586 2976 2970 
L 3123 2970 
L 3123 1472 
L 2976 1472 
Q 2918 1875 2790 1984 
Q 2662 2093 2253 2093 
L 1286 2093 
L 1286 538 
Q 1286 346 1420 291 
Q 1555 237 1933 237 
L 2163 237 
Q 2848 237 3136 403 
Q 3424 570 3642 1082 
L 3821 1082 
z
" transform="scale(0.015625)"/>
       <path id="STIXGeneral-Regular-3d" d="M 4077 2048 
L 307 2048 
L 307 2470 
L 4077 2470 
L 4077 2048 
z
M 4077 768 
L 307 768 
L 307 1190 
L 4077 1190 
L 4077 768 
z
" transform="scale(0.015625)"/>
       <path id="STIXGeneral-Regular-2d" d="M 1824 1242 
L 250 1242 
L 250 1645 
L 1824 1645 
L 1824 1242 
z
" transform="scale(0.015625)"/>
       <path id="STIXGeneral-Regular-2e" d="M 1158 275 
Q 1158 134 1052 32 
Q 947 -70 800 -70 
Q 653 -70 550 32 
Q 448 134 448 281 
Q 448 429 553 534 
Q 659 640 806 640 
Q 947 640 1052 531 
Q 1158 422 1158 275 
z
" transform="scale(0.015625)"/>
      </defs>
      <use xlink:href="#STIXGeneral-Regular-45"/>
      <use xlink:href="#STIXGeneral-Regular-62" x="61.099991"/>
      <use xlink:href="#STIXGeneral-Regular-20" x="111.099976"/>
      <use xlink:href="#STIXGeneral-Regular-3d" x="136.09996"/>
      <use xlink:href="#STIXGeneral-Regular-20" x="204.599945"/>
      <use xlink:href="#STIXGeneral-Regular-2d" x="229.59993"/>
      <use xlink:href="#STIXGeneral-Regular-39" x="262.899918"/>
      <use xlink:href="#STIXGeneral-Regular-2e" x="312.899902"/>
      <use xlink:href="#STIXGeneral-Regular-30" x="337.899887"/>
     </g>
    </g>
    <g id="line2d_16">
     <path d="M 244.077335 31.203281 
L 253.077335 31.203281 
L 262.077335 31.203281 
" style="fill: none; stroke: #414487; stroke-width: 1.5; stroke-linecap: square"/>
    </g>
    <g id="text_13">
     <!-- Eb = -8.0 -->
     <g transform="translate(269.277335 34.353281) scale(0.09 -0.09)">
      <defs>
       <path id="STIXGeneral-Regular-38" d="M 2848 992 
Q 2848 499 2505 204 
Q 2163 -90 1587 -90 
Q 1050 -90 704 204 
Q 358 499 358 954 
Q 358 1293 524 1533 
Q 691 1773 1190 2125 
Q 710 2522 553 2765 
Q 397 3008 397 3328 
Q 397 3782 745 4054 
Q 1094 4326 1638 4326 
Q 2106 4326 2410 4060 
Q 2714 3795 2714 3411 
Q 2714 3059 2531 2848 
Q 2349 2637 1856 2374 
Q 2432 1990 2640 1689 
Q 2848 1389 2848 992 
z
M 2272 3411 
Q 2272 3744 2086 3945 
Q 1901 4147 1574 4147 
Q 1248 4147 1059 3977 
Q 870 3808 870 3513 
Q 870 3219 1059 2979 
Q 1248 2739 1670 2490 
Q 1997 2682 2134 2896 
Q 2272 3110 2272 3411 
z
M 1734 1741 
L 1357 1997 
Q 1075 1766 960 1545 
Q 845 1325 845 1011 
Q 845 576 1065 333 
Q 1286 90 1658 90 
Q 1971 90 2166 285 
Q 2362 480 2362 794 
Q 2362 1082 2214 1299 
Q 2067 1517 1734 1741 
z
" transform="scale(0.015625)"/>
      </defs>
      <use xlink:href="#STIXGeneral-Regular-45"/>
      <use xlink:href="#STIXGeneral-Regular-62" x="61.099991"/>
      <use xlink:href="#STIXGeneral-Regular-20" x="111.099976"/>
      <use xlink:href="#STIXGeneral-Regular-3d" x="136.09996"/>
      <use xlink:href="#STIXGeneral-Regular-20" x="204.599945"/>
      <use xlink:href="#STIXGeneral-Regular-2d" x="229.59993"/>
      <use xlink:href="#STIXGeneral-Regular-38" x="262.899918"/>
      <use xlink:href="#STIXGeneral-Regular-2e" x="312.899902"/>
      <use xlink:href="#STIXGeneral-Regular-30" x="337.899887"/>
     </g>
    </g>
    <g id="line2d_17">
     <path d="M 244.077335 43.956563 
L 253.077335 43.956563 
L 262.077335 43.956563 
" style="fill: none; stroke: #2a788e; stroke-width: 1.5; stroke-linecap: square"/>
    </g>
    <g id="text_14">
     <!-- Eb = -7.0 -->
     <g transform="translate(269.277335 47.106563) scale(0.09 -0.09)">
      <use xlink:href="#STIXGeneral-Regular-45"/>
      <use xlink:href="#STIXGeneral-Regular-62" x="61.099991"/>
      <use xlink:href="#STIXGeneral-Regular-20" x="111.099976"/>
      <use xlink:href="#STIXGeneral-Regular-3d" x="136.09996"/>
      <use xlink:href="#STIXGeneral-Regular-20" x="204.599945"/>
      <use xlink:href="#STIXGeneral-Regular-2d" x="229.59993"/>
      <use xlink:href="#STIXGeneral-Regular-37" x="262.899918"/>
      <use xlink:href="#STIXGeneral-Regular-2e" x="312.899902"/>
      <use xlink:href="#STIXGeneral-Regular-30" x="337.899887"/>
     </g>
    </g>
    <g id="line2d_18">
     <path d="M 244.077335 56.709844 
L 253.077335 56.709844 
L 262.077335 56.709844 
" style="fill: none; stroke: #22a884; stroke-width: 1.5; stroke-linecap: square"/>
    </g>
    <g id="text_15">
     <!-- Eb = -6.0 -->
     <g transform="translate(269.277335 59.859844) scale(0.09 -0.09)">
      <defs>
       <path id="STIXGeneral-Regular-36" d="M 2854 4378 
L 2867 4275 
Q 2112 4154 1606 3664 
Q 1101 3174 973 2451 
Q 1344 2739 1786 2739 
Q 2349 2739 2672 2380 
Q 2995 2022 2995 1402 
Q 2995 774 2669 378 
Q 2291 -90 1651 -90 
Q 870 -90 518 557 
Q 218 1107 218 1786 
Q 218 2835 915 3552 
Q 1312 3962 1731 4131 
Q 2150 4301 2854 4378 
z
M 2419 1203 
Q 2419 2445 1555 2445 
Q 1235 2445 1024 2275 
Q 813 2106 813 1702 
Q 813 954 1046 522 
Q 1280 90 1722 90 
Q 2061 90 2240 394 
Q 2419 698 2419 1203 
z
" transform="scale(0.015625)"/>
      </defs>
      <use xlink:href="#STIXGeneral-Regular-45"/>
      <use xlink:href="#STIXGeneral-Regular-62" x="61.099991"/>
      <use xlink:href="#STIXGeneral-Regular-20" x="111.099976"/>
      <use xlink:href="#STIXGeneral-Regular-3d" x="136.09996"/>
      <use xlink:href="#STIXGeneral-Regular-20" x="204.599945"/>
      <use xlink:href="#STIXGeneral-Regular-2d" x="229.59993"/>
      <use xlink:href="#STIXGeneral-Regular-36" x="262.899918"/>
      <use xlink:href="#STIXGeneral-Regular-2e" x="312.899902"/>
      <use xlink:href="#STIXGeneral-Regular-30" x="337.899887"/>
     </g>
    </g>
    <g id="line2d_19">
     <path d="M 244.077335 69.463125 
L 253.077335 69.463125 
L 262.077335 69.463125 
" style="fill: none; stroke: #7ad151; stroke-width: 1.5; stroke-linecap: square"/>
    </g>
    <g id="text_16">
     <!-- Eb = -5.0 -->
     <g transform="translate(269.277335 72.613125) scale(0.09 -0.09)">
      <use xlink:href="#STIXGeneral-Regular-45"/>
      <use xlink:href="#STIXGeneral-Regular-62" x="61.099991"/>
      <use xlink:href="#STIXGeneral-Regular-20" x="111.099976"/>
      <use xlink:href="#STIXGeneral-Regular-3d" x="136.09996"/>
      <use xlink:href="#STIXGeneral-Regular-20" x="204.599945"/>
      <use xlink:href="#STIXGeneral-Regular-2d" x="229.59993"/>
      <use xlink:href="#STIXGeneral-Regular-35" x="262.899918"/>
      <use xlink:href="#STIXGeneral-Regular-2e" x="312.899902"/>
      <use xlink:href="#STIXGeneral-Regular-30" x="337.899887"/>
     </g>
    </g>
   </g>
  </g>
 </g>
 <defs>
  <clipPath id="p95c28c9555">
   <rect x="39.908437" y="7.2" width="186.732283" height="139.494405"/>
  </clipPath>
 </defs>
</svg>
